<svg width="84" height="84" viewBox="0 0 84 84" fill="none" xmlns="http://www.w3.org/2000/svg">
<path d="M74.833 76.1188C61.9624 86.6271 21.7749 86.6271 9.16702 76.1188C-3.70351 65.6106 -2.39021 20.688 9.16702 8.8663C20.7243 -2.95543 63.2757 -2.95543 74.833 8.8663C86.3902 20.688 87.7035 65.6108 74.833 76.1188Z" fill="#167667"/>
<path d="M39.6718 52.9201C38.8353 52.9201 37.999 52.5518 37.521 51.8154L30.8298 42.9781C29.8739 41.7507 30.1129 40.0323 31.3078 39.0504C32.5026 38.0684 34.1754 38.314 35.1313 39.5414L39.6718 45.5557L49.7087 32.1769C50.6646 30.9496 52.3374 30.704 53.5322 31.686C54.7271 32.6679 54.9661 34.3863 54.0102 35.6137L41.8225 51.8154C41.2251 52.4291 40.5082 52.9201 39.6718 52.9201Z" fill="white"/>
</svg>
