<svg width="64" height="64" viewBox="0 0 64 64" fill="none" xmlns="http://www.w3.org/2000/svg">
<circle cx="32" cy="32" r="32" fill="#167667" fill-opacity="0.15"/>
<path d="M43.9759 26.4099C43.9606 25.3563 43.7657 24.3111 43.3927 23.3257C42.74 21.643 41.4108 20.3125 39.7281 19.6611C38.7552 19.2951 37.7267 19.0988 36.6857 19.0765C35.3467 19.0167 34.9222 19 31.5235 19C28.1247 19 27.6891 19 26.3599 19.0765C25.3203 19.0988 24.2917 19.2951 23.3189 19.6611C21.6362 20.3125 20.3056 21.643 19.6543 23.3257C19.2882 24.2986 19.0906 25.3271 19.0711 26.3668C19.0113 27.7071 18.9932 28.1316 18.9932 31.5303C18.9932 34.9291 18.9932 35.3633 19.0711 36.6939C19.092 37.7349 19.2882 38.7621 19.6543 39.7377C20.307 41.419 21.6362 42.7496 23.3203 43.4009C24.2889 43.7795 25.3175 43.9938 26.3613 44.0272C27.7016 44.0871 28.1261 44.1052 31.5249 44.1052C34.9236 44.1052 35.3593 44.1052 36.6884 44.0272C37.7281 44.0064 38.7566 43.8101 39.7309 43.4441C41.4136 42.7913 42.7427 41.4608 43.3955 39.7795C43.7615 38.8052 43.9578 37.7781 43.9787 36.7356C44.0385 35.3967 44.0566 34.9722 44.0566 31.5721C44.0538 28.1733 44.0538 27.7419 43.9759 26.4099V26.4099ZM31.5151 37.9576C27.9605 37.9576 25.0809 35.078 25.0809 31.5234C25.0809 27.9687 27.9605 25.0891 31.5151 25.0891C35.067 25.0891 37.9494 27.9687 37.9494 31.5234C37.9494 35.078 35.067 37.9576 31.5151 37.9576ZM38.2055 26.3515C37.3746 26.3515 36.7051 25.6806 36.7051 24.8511C36.7051 24.0216 37.3746 23.3507 38.2055 23.3507C39.0336 23.3507 39.7045 24.0216 39.7045 24.8511C39.7045 25.6806 39.0336 26.3515 38.2055 26.3515Z" fill="#167667"/>
<path d="M31.5155 35.7029C33.8238 35.7029 35.6951 33.8316 35.6951 31.5233C35.6951 29.215 33.8238 27.3438 31.5155 27.3438C29.2072 27.3438 27.3359 29.215 27.3359 31.5233C27.3359 33.8316 29.2072 35.7029 31.5155 35.7029Z" fill="#167667"/>
</svg>
