<svg width="77" height="76" viewBox="0 0 77 76" fill="none" xmlns="http://www.w3.org/2000/svg">
<circle cx="38.998" cy="38" r="38" fill="#167667"/>
<path d="M27.802 24.5122C30.9553 24.9726 34.5589 25.2957 38.3931 25.2957C42.3242 25.2957 46.002 24.956 49.1961 24.477M27.802 24.5122C22.7327 23.7721 18.8273 22.6773 16.999 22V53C19.1214 52.365 23.1643 51.3629 27.802 50.6303M27.802 24.5122V50.6303M27.802 50.6303C31.1873 50.0955 34.8895 49.7043 38.3931 49.7043C41.9488 49.7043 45.735 50.1072 49.1961 50.6542M49.1961 24.477C54.1257 23.7378 57.9032 22.6666 59.6813 22L59.999 53C57.8593 52.3719 53.8175 51.3846 49.1961 50.6542M49.1961 24.477V50.6542" stroke="white" stroke-width="3" stroke-linejoin="round"/>
</svg>
