<svg width="77" height="76" viewBox="0 0 77 76" fill="none" xmlns="http://www.w3.org/2000/svg">
<circle cx="38.998" cy="38" r="38" fill="#167667"/>
<path fill-rule="evenodd" clip-rule="evenodd" d="M40.7772 21.798C40.7772 21.3212 40.5878 20.8638 40.2506 20.5266C39.9134 20.1894 39.456 20 38.9792 20C38.5023 20 38.045 20.1894 37.7078 20.5266C37.3706 20.8638 37.1812 21.3212 37.1812 21.798V23.596C37.1812 24.0729 37.3706 24.5302 37.7078 24.8674C38.045 25.2046 38.5023 25.394 38.9792 25.394C39.456 25.394 39.9134 25.2046 40.2506 24.8674C40.5878 24.5302 40.7772 24.0729 40.7772 23.596V21.798ZM28.5633 25.0219C28.2242 24.6943 27.77 24.5131 27.2985 24.5172C26.8271 24.5213 26.3762 24.7104 26.0428 25.0438C25.7094 25.3771 25.5203 25.8281 25.5162 26.2995C25.5121 26.771 25.6934 27.2251 26.0209 27.5643L27.8189 29.3623C28.158 29.6898 28.6122 29.871 29.0836 29.8669C29.5551 29.8628 30.006 29.6737 30.3394 29.3404C30.6728 29.007 30.8619 28.556 30.8659 28.0846C30.87 27.6132 30.6888 27.159 30.3613 26.8199L28.5633 25.0219ZM51.9375 27.5643C52.265 27.2251 52.4462 26.771 52.4421 26.2995C52.438 25.8281 52.2489 25.3771 51.9156 25.0438C51.5822 24.7104 51.1312 24.5213 50.6598 24.5172C50.1884 24.5131 49.7342 24.6943 49.3951 25.0219L47.5971 26.8199C47.2695 27.159 47.0883 27.6132 47.0924 28.0846C47.0965 28.556 47.2856 29.007 47.619 29.3404C47.9523 29.6737 48.4033 29.8628 48.8747 29.8669C49.3462 29.871 49.8004 29.6898 50.1395 29.3623L51.9375 27.5643ZM38.9792 27.1921C36.6616 27.1919 34.4056 27.9381 32.5452 29.3202C30.6848 30.7022 29.3189 32.6467 28.6498 34.8656C27.9807 37.0845 28.0439 39.4599 28.8302 41.64C29.6164 43.8202 31.0838 45.6891 33.0152 46.9702H44.9432C46.8745 45.6891 48.3419 43.8202 49.1282 41.64C49.9144 39.4599 49.9777 37.0845 49.3086 34.8656C48.6395 32.6467 47.2736 30.7022 45.4132 29.3202C43.5528 27.9381 41.2968 27.1919 38.9792 27.1921ZM44.3732 48.7683H33.5851V50.5663C33.5851 51.9969 34.1534 53.3689 35.165 54.3804C36.1766 55.392 37.5486 55.9603 38.9792 55.9603C40.4098 55.9603 41.7818 55.392 42.7934 54.3804C43.8049 53.3689 44.3732 51.9969 44.3732 50.5663V48.7683ZM22.797 36.1821C22.3202 36.1821 21.8628 36.3716 21.5257 36.7088C21.1885 37.046 20.999 37.5033 20.999 37.9802C20.999 38.457 21.1885 38.9144 21.5257 39.2515C21.8628 39.5887 22.3202 39.7782 22.797 39.7782H24.5951C25.0719 39.7782 25.5293 39.5887 25.8664 39.2515C26.2036 38.9144 26.3931 38.457 26.3931 37.9802C26.3931 37.5033 26.2036 37.046 25.8664 36.7088C25.5293 36.3716 25.0719 36.1821 24.5951 36.1821H22.797ZM53.3633 36.1821C52.8864 36.1821 52.4291 36.3716 52.0919 36.7088C51.7547 37.046 51.5653 37.5033 51.5653 37.9802C51.5653 38.457 51.7547 38.9144 52.0919 39.2515C52.4291 39.5887 52.8864 39.7782 53.3633 39.7782H55.1613C55.6382 39.7782 56.0955 39.5887 56.4327 39.2515C56.7699 38.9144 56.9593 38.457 56.9593 37.9802C56.9593 37.5033 56.7699 37.046 56.4327 36.7088C56.0955 36.3716 55.6382 36.1821 55.1613 36.1821H53.3633Z" fill="white"/>
</svg>
