<svg width="77" height="76" viewBox="0 0 77 76" fill="none" xmlns="http://www.w3.org/2000/svg">
<circle cx="38.998" cy="38" r="38" fill="#167667"/>
<path d="M59.1514 40.0236V52.3956H40.303V49.3689C40.303 48.8568 39.8878 48.4417 39.3758 48.4417C38.8637 48.4417 38.4485 48.8568 38.4485 49.3689V52.3956H30.3603V23.6044H38.4486V44.4931C38.4486 45.0052 38.8638 45.4203 39.3758 45.4203C39.8879 45.4203 40.303 45.0052 40.303 44.4931V40.0236V40.0198V40.0161V40.0123V40.0086V40.0049V40.0012V39.9976V39.9939V39.9903V39.9867V39.9832V39.9796V39.9761V39.9726V39.9691V39.9657V39.9623V39.9589V39.9555V39.9521V39.9488V39.9455V39.9422V39.9389V39.9356V39.9324V39.9292V39.926V39.9228V39.9197V39.9165V39.9134V39.9104V39.9073V39.9043V39.9012V39.8982V39.8952V39.8923V39.8893V39.8864V39.8835V39.8806V39.8778V39.8749V39.8721V39.8693V39.8665V39.8638V39.861V39.8583V39.8556V39.8529V39.8503V39.8476V39.845V39.8424V39.8398V39.8372V39.8347V39.8321V39.8296V39.8271V39.8247V39.8222V39.8198V39.8173V39.8149V39.8126V39.8102V39.8078V39.8055V39.8032V39.8009V39.7986V39.7964V39.7941V39.7919V39.7897V39.7875V39.7853V39.7831V39.781V39.7789V39.7768V39.7747V39.7726V39.7706V39.7685V39.7665V39.7645V39.7625V39.7605V39.7585V39.7566V39.7547V39.7528V39.7509V39.749V39.7471V39.7453V39.7434V39.7416V39.7398V39.738V39.7362V39.7345V39.7327V39.731V39.7293V39.7276V39.7259V39.7242V39.7226V39.7209V39.7193V39.7177V39.7161V39.7145V39.713V39.7114V39.7099V39.7083V39.7068V39.7053V39.7038V39.7023V39.7009V39.6994V39.698V39.6966V39.6952V39.6938V39.6924V39.691V39.6897V39.6883V39.687V39.6857V39.6844V39.6831V39.6818V39.6805V39.6792V39.678V39.6768V39.6755V39.6743V39.6731V39.6719V39.6708V39.6696V39.6685V39.6673V39.6662V39.6651V39.664V39.6629V39.6618V39.6607V39.6596V39.6586V39.6575V39.6565V39.6555V39.6545V39.6535V39.6525V39.6515V39.6505V39.6496V39.6486V39.6477V39.6467V39.6458V39.6449V39.644V39.6431V39.6422V39.6413V39.6405V39.6396V39.6388V39.6379V39.6371V39.6363V39.6355V39.6346V39.6339V39.6331V39.6323V39.6315V39.6308V39.63V39.6292V39.6285V39.6278V39.6271V39.6263V39.6256V39.6249V39.6242V39.6236V39.6229V39.6222V39.6215V39.6209V39.6202V39.6196V39.619V39.6183V39.6177V39.6171V39.6165V39.6159V39.6153V39.6147V39.6141V39.6135V39.613V39.6124V39.6118V39.6113V39.6107V39.6102V39.6097V39.6091V39.6086V39.6081V39.6076V39.6071V39.6066V39.6061V39.6056V39.6051V39.6046V39.6041V39.6036V39.6032V39.6027V39.6022V39.6018V39.6013V39.6009V39.6004V39.6V39.5996V39.5991V39.5987V39.5983V39.5979V39.5974V39.597V39.5966V39.5962V39.5958V39.5954V39.595V39.5946V39.5942V39.5938V39.5934V39.5931V39.5927V39.5923V39.5919V39.5915V39.5912V39.5908V39.5904V39.5901V39.5897V39.5893V39.589V39.5886V39.5883V39.5879V39.5876V39.5872V39.5869V39.5865V39.5862V39.5858V39.5855V39.5851V39.5848V39.5844V39.5841V39.5837V39.5834V39.5831V39.5827V39.5824V39.582V39.5817V39.5814V39.581V39.5807V39.5803V39.58V39.5796V39.5793V39.579V39.5786V39.5783V39.5779V39.5776V39.5772V39.5769V39.5765V39.5762V39.5758V39.5755V39.5751V39.5748V39.5744V39.5741V39.5737V39.5734V39.573V39.5726V39.5723V39.5719V39.5715V39.5711V39.5708V39.5704V39.57V39.5696V39.5692V39.5689V39.5685V39.5681V39.5677V39.5673V39.5669V39.5665V39.5661V39.5656V39.5652V39.5648V39.5644V39.564V39.5635V39.5631V39.5627V39.5622V39.5618V39.5613V39.5609V39.5604V39.5599V39.5595V39.559V39.5585V39.558V39.5576V39.5571V39.5566V39.5561V39.5556V39.555V39.5545V39.554V39.5535V39.5529V39.5524V39.5519V39.5513V39.5508V39.5502V39.5496V39.5491V39.5485V39.5479V39.5473V39.5467V39.5461V39.5455V39.5449V39.5442V39.5436V39.543V39.5423V39.5417V39.541V39.5403V39.5397V39.539V39.5383V39.5376V39.5369V39.5362V39.5355V39.5347V39.534V39.5333V39.5325V39.5318V39.531V39.5302V39.5294V39.5287V39.5279V39.527V39.5262V39.5254V39.5246V39.5237V39.5229V39.522V39.5211V39.5203V39.5194V39.5185V39.5176V39.5166V39.5157V39.5148V39.5138V39.5129V39.5119V39.5109V39.5099V39.509V39.5079V39.5069V39.5059V39.5049V39.5038V39.5028V39.5017V39.5006V39.4995V39.4984V39.4973V39.4962V39.495V39.4939V39.4927V39.4916V39.4904V39.4892V39.488V39.4868V39.4855V39.4843V39.483V39.4818V39.4805V39.4792V39.4779V39.4766V39.4753V39.4739V39.4726V39.4712V39.4699V39.4685V39.4671V39.4657V39.4642V39.4628V39.4613V39.4599V39.4584V39.4569V39.4554V39.4539V39.4523V39.4508V39.4492V39.4476V39.446V39.4444V39.4428V39.4412V39.4395V39.4379V39.4362V39.4345V39.4328V39.4311V39.4293V39.4276V39.4258V39.424V39.4223V39.4204V39.4186V39.4168V39.4149V39.413V39.4112V39.4093V39.4073V39.4054V39.4034V39.4015V39.3995V39.3975V39.3955V39.3934V39.3914V39.3893V39.3873V39.3852V39.383V39.3809V39.3788V39.3766V39.3744V38.6692V38.6692L40.303 23.6044H59.1516V24.8092C59.1516 25.3212 59.5665 25.7364 60.0788 25.7364C60.5909 25.7364 61.006 25.3212 61.006 24.8092V22.6772C61.006 22.1652 60.591 21.75 60.0788 21.75H29.4331C28.921 21.75 28.5059 22.1652 28.5059 22.6772V53.3228C28.5059 53.8348 28.921 54.25 29.4331 54.25H60.0786C60.5908 54.25 61.0059 53.8348 61.0059 53.3228V31C61.0059 30.488 60.5909 30.0728 60.0786 30.0728C59.5665 30.0728 59.1514 30.488 59.1514 31V38.6677C59.147 39.0543 59.1468 39.1419 59.1483 39.1766C59.1488 39.1884 59.1496 39.1972 59.1499 39.2007L59.15 39.2017L59.1501 39.2023L59.1503 39.2077C59.1508 39.2229 59.1514 39.2592 59.1514 39.353V39.3552V39.3574V39.3596V39.3617V39.3638V39.3659V39.368V39.3701V39.3722V39.3743V39.3763V39.3784V39.3804V39.3824V39.3844V39.3864V39.3883V39.3903V39.3922V39.3942V39.3961V39.398V39.3999V39.4017V39.4036V39.4055V39.4073V39.4091V39.411V39.4128V39.4146V39.4163V39.4181V39.4199V39.4216V39.4233V39.4251V39.4268V39.4285V39.4302V39.4318V39.4335V39.4351V39.4368V39.4384V39.44V39.4416V39.4432V39.4448V39.4464V39.448V39.4495V39.4511V39.4526V39.4541V39.4556V39.4571V39.4586V39.4601V39.4615V39.463V39.4645V39.4659V39.4673V39.4687V39.4701V39.4715V39.4729V39.4743V39.4757V39.477V39.4784V39.4797V39.481V39.4824V39.4837V39.485V39.4863V39.4875V39.4888V39.4901V39.4913V39.4926V39.4938V39.4951V39.4963V39.4975V39.4987V39.4999V39.5011V39.5022V39.5034V39.5046V39.5057V39.5069V39.508V39.5091V39.5103V39.5114V39.5125V39.5136V39.5147V39.5157V39.5168V39.5179V39.5189V39.52V39.521V39.5221V39.5231V39.5241V39.5251V39.5261V39.5271V39.5281V39.5291V39.5301V39.5311V39.532V39.533V39.534V39.5349V39.5358V39.5368V39.5377V39.5386V39.5395V39.5404V39.5413V39.5422V39.5431V39.544V39.5449V39.5458V39.5466V39.5475V39.5484V39.5492V39.5501V39.5509V39.5517V39.5526V39.5534V39.5542V39.555V39.5558V39.5566V39.5574V39.5582V39.559V39.5598V39.5606V39.5613V39.5621V39.5629V39.5636V39.5644V39.5652V39.5659V39.5667V39.5674V39.5681V39.5689V39.5696V39.5703V39.571V39.5718V39.5725V39.5732V39.5739V39.5746V39.5753V39.576V39.5767V39.5774V39.5781V39.5787V39.5794V39.5801V39.5808V39.5814V39.5821V39.5828V39.5834V39.5841V39.5848V39.5854V39.5861V39.5867V39.5874V39.588V39.5887V39.5893V39.5899V39.5906V39.5912V39.5918V39.5925V39.5931V39.5937V39.5944V39.595V39.5956V39.5962V39.5969V39.5975V39.5981V39.5987V39.5993V39.5999V39.6006V39.6012V39.6018V39.6024V39.603V39.6036V39.6042V39.6048V39.6054V39.6061V39.6067V39.6073V39.6079V39.6085V39.6091V39.6097V39.6103V39.6109V39.6115V39.6121V39.6127V39.6133V39.6139V39.6146V39.6152V39.6158V39.6164V39.617V39.6176V39.6182V39.6188V39.6194V39.6201V39.6207V39.6213V39.6219V39.6225V39.6231V39.6238V39.6244V39.625V39.6256V39.6263V39.6269V39.6275V39.6282V39.6288V39.6294V39.6301V39.6307V39.6314V39.632V39.6327V39.6333V39.634V39.6346V39.6353V39.6359V39.6366V39.6372V39.6379V39.6386V39.6393V39.6399V39.6406V39.6413V39.642V39.6427V39.6434V39.644V39.6447V39.6454V39.6462V39.6469V39.6476V39.6483V39.649V39.6497V39.6505V39.6512V39.6519V39.6527V39.6534V39.6541V39.6549V39.6556V39.6564V39.6572V39.6579V39.6587V39.6595V39.6603V39.6611V39.6618V39.6626V39.6634V39.6642V39.6651V39.6659V39.6667V39.6675V39.6684V39.6692V39.67V39.6709V39.6717V39.6726V39.6735V39.6743V39.6752V39.6761V39.677V39.6779V39.6788V39.6797V39.6806V39.6815V39.6824V39.6833V39.6843V39.6852V39.6862V39.6871V39.6881V39.6891V39.69V39.691V39.692V39.693V39.694V39.695V39.696V39.6971V39.6981V39.6991V39.7002V39.7012V39.7023V39.7034V39.7044V39.7055V39.7066V39.7077V39.7088V39.7099V39.711V39.7122V39.7133V39.7145V39.7156V39.7168V39.718V39.7191V39.7203V39.7215V39.7227V39.7239V39.7252V39.7264V39.7276V39.7289V39.7301V39.7314V39.7327V39.734V39.7353V39.7366V39.7379V39.7392V39.7405V39.7419V39.7432V39.7446V39.746V39.7473V39.7487V39.7501V39.7516V39.753V39.7544V39.7558V39.7573V39.7588V39.7602V39.7617V39.7632V39.7647V39.7662V39.7677V39.7693V39.7708V39.7724V39.7739V39.7755V39.7771V39.7787V39.7803V39.7819V39.7836V39.7852V39.7869V39.7885V39.7902V39.7919V39.7936V39.7953V39.7971V39.7988V39.8005V39.8023V39.8041V39.8059V39.8077V39.8095V39.8113V39.8131V39.815V39.8168V39.8187V39.8206V39.8225V39.8244V39.8263V39.8282V39.8302V39.8321V39.8341V39.8361V39.8381V39.8401V39.8421V39.8442V39.8462V39.8483V39.8504V39.8525V39.8546V39.8567V39.8588V39.861V39.8631V39.8653V39.8675V39.8697V39.8719V39.8742V39.8764V39.8787V39.8809V39.8832V39.8855V39.8878V39.8902V39.8925V39.8949V39.8973V39.8997V39.9021V39.9045V39.9069V39.9094V39.9118V39.9143V39.9168V39.9193V39.9219V39.9244V39.927V39.9295V39.9321V39.9347V39.9373V39.94V39.9426V39.9453V39.948V39.9507V39.9534V39.9561V39.9589V39.9617V39.9644V39.9672V39.97V39.9729V39.9757V39.9786V39.9815V39.9844V39.9873V39.9902V39.9932V39.9961V39.9991V40.0021V40.0051V40.0082V40.0112V40.0143V40.0174V40.0205V40.0236Z" fill="white" stroke="white" stroke-width="0.5"/>
<path d="M17.8881 25.7763L17.8881 25.7762L20.1229 22.1872C20.1229 22.1872 20.1229 22.1872 20.1229 22.1872C20.2921 21.9153 20.5897 21.75 20.91 21.75C21.2301 21.75 21.5278 21.9153 21.6971 22.1872M17.8881 25.7763L18.6752 26.9435C18.4293 26.9435 18.2026 26.8101 18.0832 26.5951C17.9638 26.38 17.9704 26.1172 18.1004 25.9084L20.3351 22.3193C20.4587 22.1208 20.6761 22 20.91 22C21.1438 22 21.3612 22.1208 21.4848 22.3193L23.7195 25.9084C23.8495 26.1171 23.8561 26.38 23.7367 26.5951C23.6173 26.8102 23.3906 26.9435 23.1447 26.9435H21.8372V27.1935M17.8881 25.7763C17.7102 26.0621 17.7011 26.422 17.8647 26.7165C18.0282 27.0108 18.3385 27.1935 18.6752 27.1935H19.9827M17.8881 25.7763L19.9827 27.1935M21.6971 22.1872L21.4852 22.3191L21.6971 22.1872L21.6971 22.1872ZM21.6971 22.1872L23.9316 25.7762L23.7197 25.9082L23.9317 25.7762C24.1098 26.0621 24.1188 26.422 23.9553 26.7164C23.7917 27.011 23.4814 27.1935 23.1447 27.1935H21.8372M21.8372 27.1935V29.7754C21.8372 30.2874 21.422 30.7026 20.91 30.7026C20.3979 30.7026 19.9827 30.2874 19.9827 29.7754V27.1935M21.8372 27.1935H21.5872V29.7754C21.5872 30.1493 21.2839 30.4526 20.91 30.4526C20.536 30.4526 20.2327 30.1493 20.2327 29.7754L19.9827 27.1935M21.475 25.3391H20.3448L20.9099 24.4315L21.475 25.3391Z" fill="white" stroke="white" stroke-width="0.5"/>
<path d="M23.9551 49.2825C23.7916 48.9881 23.4813 48.8056 23.1446 48.8056H21.8371V34.9995C21.8371 34.4874 21.4219 34.0723 20.9099 34.0723C20.3978 34.0723 19.9827 34.4874 19.9827 34.9995V48.8055H18.6752C18.3385 48.8055 18.0282 48.988 17.8646 49.2826C17.7011 49.577 17.7102 49.9369 17.8882 50.2228L20.1228 53.8118C20.292 54.0836 20.5896 54.249 20.9099 54.249C21.2302 54.249 21.5278 54.0837 21.697 53.8117L23.9316 50.2228C23.9316 50.2228 23.9316 50.2228 23.9316 50.2227C24.1097 49.9368 24.1188 49.5769 23.9551 49.2825ZM21.475 50.66L20.9099 51.5676L20.3448 50.66H21.475Z" fill="white" stroke="white" stroke-width="0.5"/>
<path d="M20.998 53L19.266 50L22.7301 50L20.998 53Z" fill="#3BA04B"/>
<path d="M20.998 23L22.7301 26H19.266L20.998 23Z" fill="#3BA04B"/>
</svg>
