<svg width="77" height="76" viewBox="0 0 77 76" fill="none" xmlns="http://www.w3.org/2000/svg">
<circle cx="38.998" cy="38" r="38" fill="#167667"/>
<path d="M51.1627 48.9394V51.938C51.1627 52.8792 50.7888 53.7818 50.1233 54.4473C49.4578 55.1128 48.5552 55.4867 47.6141 55.4867H29.8707C28.9295 55.4867 28.0269 55.1128 27.3614 54.4473C26.6959 53.7818 26.322 52.8792 26.322 51.938V45.373C25.5058 45.0536 24.459 44.8407 22.7734 44.8407C22.3028 44.8407 21.8515 44.6538 21.5187 44.321C21.186 43.9883 20.999 43.5369 20.999 43.0664C20.999 42.5958 21.186 42.1445 21.5187 41.8117C21.8515 41.479 22.3028 41.292 22.7734 41.292C24.2283 41.292 25.3816 41.434 26.322 41.6646V38.2757C25.5058 37.9563 24.459 37.7434 22.7734 37.7434C22.3028 37.7434 21.8515 37.5564 21.5187 37.2237C21.186 36.8909 20.999 36.4396 20.999 35.969C20.999 35.4984 21.186 35.0471 21.5187 34.7144C21.8515 34.3816 22.3028 34.1947 22.7734 34.1947C24.2283 34.1947 25.3816 34.3366 26.322 34.5673V31.1783C25.5058 30.8589 24.459 30.646 22.7734 30.646C22.3028 30.646 21.8515 30.4591 21.5187 30.1263C21.186 29.7936 20.999 29.3423 20.999 28.8717C20.999 28.4011 21.186 27.9498 21.5187 27.617C21.8515 27.2843 22.3028 27.0973 22.7734 27.0973C24.2283 27.0973 25.3816 27.2393 26.322 27.47V23.5487C26.322 22.6075 26.6959 21.7049 27.3614 21.0394C28.0269 20.3739 28.9295 20 29.8707 20H47.6141C48.5552 20 49.4578 20.3739 50.1233 21.0394C50.7888 21.7049 51.1627 22.6075 51.1627 23.5487V27.3812C54.321 27.9313 55.6695 29.1023 55.9712 29.3862C56.6632 30.0782 56.6632 31.2138 55.9712 31.9058C55.2792 32.5978 54.3565 32.58 53.4516 31.9058C52.5467 31.2315 51.6063 30.646 47.6141 30.646C45.3784 30.646 43.9057 31.3735 42.2023 32.2429C40.357 33.1478 38.281 34.1947 35.1937 34.1947C34.5549 34.1947 33.9694 34.1947 33.4194 34.1237V30.5573C33.9517 30.646 34.5372 30.646 35.1937 30.646C37.4294 30.646 38.9021 29.9185 40.6054 29.0669C42.4507 28.1442 44.5445 27.0973 47.6141 27.0973V23.5487H29.8707V51.938H47.6141V48.3894C50.2756 48.3894 51.1095 48.9039 51.1627 48.9394ZM47.6141 34.1947C44.5445 34.1947 42.4507 35.2415 40.6054 36.1642C38.9021 37.0159 37.4294 37.7434 35.1937 37.7434C34.5372 37.7434 33.9517 37.7434 33.4194 37.6546V41.2211C33.9694 41.292 34.5549 41.292 35.1937 41.292C38.281 41.292 40.357 40.2452 42.2023 39.3403C43.9057 38.4886 45.3784 37.7434 47.6141 37.7434C51.6063 37.7434 53.4516 39.0031 53.4516 39.0031C54.3565 39.6951 55.2792 39.6951 55.9712 39.0031C56.6632 38.3111 56.6632 37.1933 55.9712 36.4836C55.5986 36.111 53.3806 34.1947 47.6141 34.1947ZM47.6141 41.292C44.5445 41.292 42.4507 42.3389 40.6054 43.2615C38.9021 44.1132 37.4294 44.8407 35.1937 44.8407C34.5372 44.8407 33.9517 44.8407 33.4194 44.752V48.3184C33.9694 48.3894 34.5549 48.3894 35.1937 48.3894C38.281 48.3894 40.357 47.3425 42.2023 46.4376C43.9057 45.5859 45.3784 44.8407 47.6141 44.8407C51.6063 44.8407 53.4516 46.1005 53.4516 46.1005C54.3565 46.7925 55.2792 46.7925 55.9712 46.1005C56.6632 45.4085 56.6632 44.2907 55.9712 43.5809C55.5986 43.2083 53.3806 41.292 47.6141 41.292Z" fill="white"/>
<path d="M47.6141 34.1947C44.5445 34.1947 42.4507 35.2415 40.6054 36.1642C38.9021 37.0159 37.4294 37.7434 35.1937 37.7434C34.5372 37.7434 33.9517 37.7434 33.4194 37.6546V41.2211C33.9694 41.292 34.5549 41.292 35.1937 41.292C38.2811 41.292 40.357 40.2452 42.2023 39.3403C43.9057 38.4886 45.3784 37.7434 47.6141 37.7434C51.6063 37.7434 53.4516 39.0031 53.4516 39.0031C54.3565 39.6951 55.2792 39.6951 55.9712 39.0031C56.6632 38.3111 56.6632 37.1933 55.9712 36.4836C55.5986 36.111 53.3806 34.1947 47.6141 34.1947M51.1627 48.9394V51.938C51.1627 52.8792 50.7888 53.7818 50.1233 54.4473C49.4578 55.1128 48.5552 55.4867 47.6141 55.4867H29.8707C28.9295 55.4867 28.0269 55.1128 27.3614 54.4473C26.6959 53.7818 26.322 52.8792 26.322 51.938V45.373C25.5058 45.0536 24.459 44.8407 22.7734 44.8407C22.3028 44.8407 21.8515 44.6538 21.5187 44.321C21.186 43.9883 20.999 43.5369 20.999 43.0664C20.999 42.5958 21.186 42.1445 21.5187 41.8117C21.8515 41.479 22.3028 41.292 22.7734 41.292C24.2283 41.292 25.3816 41.434 26.322 41.6646V38.2757C25.5058 37.9563 24.459 37.7434 22.7734 37.7434C22.3028 37.7434 21.8515 37.5564 21.5187 37.2237C21.186 36.8909 20.999 36.4396 20.999 35.969C20.999 35.4984 21.186 35.0471 21.5187 34.7144C21.8515 34.3816 22.3028 34.1947 22.7734 34.1947C24.2283 34.1947 25.3816 34.3366 26.322 34.5673V31.1783C25.5058 30.8589 24.459 30.646 22.7734 30.646C22.3028 30.646 21.8515 30.4591 21.5187 30.1263C21.186 29.7936 20.999 29.3423 20.999 28.8717C20.999 28.4011 21.186 27.9498 21.5187 27.617C21.8515 27.2843 22.3028 27.0973 22.7734 27.0973C24.2283 27.0973 25.3816 27.2393 26.322 27.47V23.5487C26.322 22.6075 26.6959 21.7049 27.3614 21.0394C28.0269 20.3739 28.9295 20 29.8707 20H47.6141C48.5552 20 49.4578 20.3739 50.1233 21.0394C50.7888 21.7049 51.1627 22.6075 51.1627 23.5487V27.3812C54.321 27.9313 55.6695 29.1023 55.9712 29.3862C56.6632 30.0782 56.6632 31.2138 55.9712 31.9058C55.2792 32.5978 54.3565 32.58 53.4516 31.9058C52.5467 31.2315 51.6063 30.646 47.6141 30.646C45.3784 30.646 43.9057 31.3735 42.2023 32.2429C40.357 33.1478 38.2811 34.1947 35.1937 34.1947C34.5549 34.1947 33.9694 34.1947 33.4194 34.1237V30.5573C33.9517 30.646 34.5372 30.646 35.1937 30.646C37.4294 30.646 38.9021 29.9185 40.6054 29.0669C42.4507 28.1442 44.5445 27.0973 47.6141 27.0973V23.5487H29.8707V51.938H47.6141V48.3894C50.2756 48.3894 51.1095 48.9039 51.1627 48.9394ZM47.6141 41.292C44.5445 41.292 42.4507 42.3389 40.6054 43.2615C38.9021 44.1132 37.4294 44.8407 35.1937 44.8407C34.5372 44.8407 33.9517 44.8407 33.4194 44.752V48.3184C33.9694 48.3894 34.5549 48.3894 35.1937 48.3894C38.2811 48.3894 40.357 47.3425 42.2023 46.4376C43.9057 45.5859 45.3784 44.8407 47.6141 44.8407C51.6063 44.8407 53.4516 46.1005 53.4516 46.1005C54.3565 46.7925 55.2792 46.7925 55.9712 46.1005C56.6632 45.4085 56.6632 44.2907 55.9712 43.5809C55.5986 43.2083 53.3806 41.292 47.6141 41.292V41.292Z" stroke="#167667"/>
</svg>
