<svg width="19" height="29" viewBox="0 0 19 29" fill="none" xmlns="http://www.w3.org/2000/svg">
<path d="M12.3464 5.4367C13.9196 5.4367 15.1959 4.21911 15.1959 2.71835C15.1959 1.2176 13.9196 0 12.3464 0C10.7733 0 9.49691 1.2176 9.49691 2.71835C9.49691 4.21911 10.7733 5.4367 12.3464 5.4367ZM17.9564 13.8806L16.5732 13.2123L15.9974 11.5473C15.1247 9.02153 12.6907 7.2546 9.93028 7.24894C7.79314 7.24327 6.61177 7.82092 4.39152 8.67607C3.10924 9.16877 2.05848 10.1032 1.44108 11.2925L1.04334 12.0627C0.580293 12.9575 0.954292 14.0448 1.88632 14.4922C2.81242 14.9396 3.94035 14.5772 4.40933 13.6824L4.80708 12.9122C5.01486 12.5157 5.35917 12.2043 5.7866 12.04L7.37758 11.4284L6.47523 14.866C6.16654 16.0439 6.49898 17.2955 7.35977 18.196L10.9157 21.8997C11.3432 22.3471 11.6459 22.8851 11.8003 23.4684L12.8867 27.6196C13.1419 28.588 14.1749 29.1826 15.19 28.9391C16.2052 28.6956 16.8285 27.7102 16.5732 26.7418L15.2553 21.7015C15.101 21.1182 14.7982 20.5745 14.3708 20.1328L11.6697 17.3182L12.6907 13.4275L13.0173 14.362C13.3319 15.2737 14.0087 16.0269 14.8991 16.4574L16.2823 17.1256C17.2084 17.573 18.3364 17.2106 18.8053 16.3158C19.2624 15.4266 18.8885 14.328 17.9564 13.8806V13.8806ZM4.36778 21.8488C4.17781 22.3075 3.89286 22.7209 3.5248 23.0663L0.556547 25.9036C-0.185516 26.6115 -0.185516 27.7612 0.556547 28.4691C1.29861 29.177 2.49778 29.177 3.23984 28.4691L6.76612 25.1051C7.12825 24.7597 7.4132 24.3462 7.60911 23.8875L8.41053 21.9733C5.12765 18.5584 6.11311 19.6061 5.59663 18.9322L4.36778 21.8488Z" fill="#167667"/>
</svg>
