<svg width="76" height="76" viewBox="0 0 76 76" fill="none" xmlns="http://www.w3.org/2000/svg">
<circle cx="38" cy="38" r="38" fill="#167667"/>
<path d="M44.7562 46.85H30.6016V36.1279H45.4108V46.85H44.7562ZM31.9639 45.5054H44.0661V37.4726H31.9639V45.5054Z" fill="white"/>
<path d="M44.7562 46.85H30.6016V36.1279H45.4108V46.85H44.7562ZM31.9639 45.5054H44.0661V37.4726H31.9639V45.5054Z" fill="white" stroke="white" stroke-width="0.4" stroke-miterlimit="10"/>
<path d="M41.7486 37.4724H33.5566V34.376C33.6556 33.2712 34.1644 32.2434 34.983 31.4948C35.8016 30.7462 36.8707 30.3311 37.98 30.3311C39.0892 30.3311 40.1583 30.7462 40.9769 31.4948C41.7955 32.2434 42.3044 33.2712 42.4033 34.376V37.4724H41.7486ZM34.9013 36.1277H41.0763V34.3583C41.0684 33.5435 40.7449 32.7634 40.1739 32.1821C39.5947 31.6079 38.8133 31.2839 37.9977 31.2797C37.5919 31.2774 37.1896 31.3553 36.8141 31.509C36.4385 31.6626 36.097 31.889 35.8093 32.1751C35.5215 32.4613 35.2932 32.8014 35.1374 33.1761C34.9815 33.5508 34.9013 33.9526 34.9013 34.3583V36.1277Z" fill="white"/>
<path d="M41.7486 37.4724H33.5566V34.376C33.6556 33.2712 34.1644 32.2434 34.983 31.4948C35.8016 30.7462 36.8707 30.3311 37.98 30.3311C39.0892 30.3311 40.1583 30.7462 40.9769 31.4948C41.7955 32.2434 42.3044 33.2712 42.4033 34.376V37.4724H41.7486ZM34.9013 36.1277H41.0763V34.3583C41.0684 33.5435 40.7449 32.7634 40.1739 32.1821C39.5947 31.6079 38.8133 31.2839 37.9977 31.2797C37.5919 31.2774 37.1896 31.3553 36.8141 31.509C36.4385 31.6626 36.097 31.889 35.8093 32.1751C35.5215 32.4613 35.2932 32.8014 35.1374 33.1761C34.9815 33.5508 34.9013 33.9526 34.9013 34.3583V36.1277Z" fill="white" stroke="white" stroke-width="0.4" stroke-miterlimit="10"/>
<path d="M37.9798 39.6489C38.3122 39.6508 38.6303 39.7844 38.8644 40.0205C39.0858 40.2619 39.2085 40.5776 39.2085 40.9051C39.2085 41.2327 39.0858 41.5483 38.8644 41.7898C38.6292 42.0232 38.3112 42.1541 37.9798 42.1541C37.6484 42.1541 37.3304 42.0232 37.0951 41.7898C36.8717 41.5489 36.7456 41.2336 36.7413 40.9051C36.7385 40.5752 36.8656 40.2574 37.0951 40.0205C37.2075 39.8847 37.3479 39.7749 37.5067 39.6985C37.6655 39.6222 37.839 39.5811 38.0152 39.5781L37.9798 39.6489Z" fill="white"/>
<path d="M37.9798 39.6489C38.3122 39.6508 38.6303 39.7844 38.8644 40.0205C39.0858 40.2619 39.2085 40.5776 39.2085 40.9051C39.2085 41.2327 39.0858 41.5483 38.8644 41.7898C38.6292 42.0232 38.3112 42.1541 37.9798 42.1541C37.6484 42.1541 37.3304 42.0232 37.0951 41.7898C36.8717 41.5489 36.7456 41.2336 36.7413 40.9051C36.7385 40.5752 36.8656 40.2574 37.0951 40.0205C37.2075 39.8847 37.3479 39.7749 37.5067 39.6985C37.6655 39.6222 37.839 39.5811 38.0152 39.5781L37.9798 39.6489Z" fill="white" stroke="white" stroke-width="0.4" stroke-miterlimit="10"/>
<path d="M38.6894 40.4971H37.3447V43.8234H38.6894V40.4971Z" fill="white"/>
<path d="M38.6894 40.4971H37.3447V43.8234H38.6894V40.4971Z" fill="white" stroke="white" stroke-width="0.4" stroke-miterlimit="10"/>
<path d="M38.0158 62.5443C41.9254 61.5481 45.5291 59.6035 48.5079 56.8824C50.3888 55.3371 52.0973 53.593 53.6035 51.6806C54.9092 49.9918 56.0247 48.1643 56.9299 46.2311C57.7722 44.343 58.4013 42.3668 58.8054 40.3392C59.2973 38.0521 59.5757 35.7243 59.6369 33.3857V23.1413C58.0092 22.6813 53.1258 21.2659 48.6671 19.4965C44.2084 17.7272 39.2897 15.1794 38.0512 14.507C36.7773 15.1794 32.0001 17.6387 27.4352 19.4965C22.8703 21.3543 18.0224 22.6813 16.4477 23.1413V33.3857C16.5003 35.724 16.7728 38.052 17.2616 40.3392C17.6637 42.3695 18.2989 44.3466 19.1548 46.2311C20.0533 48.1678 21.1692 49.9961 22.4811 51.6806C23.9707 53.5902 25.6613 55.3342 27.5237 56.8824C30.4999 59.6071 34.1046 61.5522 38.0158 62.5443ZM38.352 13.0031C38.352 13.0031 43.9076 15.9579 49.1979 18.0988C54.4882 20.2397 60.4685 21.9382 60.4685 21.9382L60.9993 22.0798V33.3857C60.939 35.8199 60.6487 38.2428 60.1324 40.6223C59.7065 42.7601 59.0417 44.8433 58.1507 46.8326C57.1823 48.8605 55.9957 50.7768 54.6121 52.5476C53.0442 54.5394 51.2644 56.3547 49.3041 57.9617C46.1082 60.9053 42.2086 62.977 37.9804 63.9774H37.8212C33.6006 62.9705 29.7083 60.8994 26.5152 57.9617C24.5548 56.3547 22.775 54.5394 21.2072 52.5476C19.8178 50.7808 18.6308 48.8638 17.6685 46.8326C16.8369 44.8378 16.2373 42.754 15.8815 40.6223C15.3774 38.2412 15.0931 35.8188 15.0322 33.3857V22.0798L15.5453 21.9382C15.5453 21.9382 21.5257 20.1689 26.8159 18.0988C32.1062 16.0287 37.6796 13.0031 37.6796 13.0031L38.0158 12.8262L38.352 13.0031Z" fill="white"/>
<path d="M38.0158 62.5443C41.9254 61.5481 45.5291 59.6035 48.5079 56.8824C50.3888 55.3371 52.0973 53.593 53.6035 51.6806C54.9092 49.9918 56.0247 48.1643 56.9299 46.2311C57.7722 44.343 58.4013 42.3668 58.8054 40.3392C59.2973 38.0521 59.5757 35.7243 59.6369 33.3857V23.1413C58.0092 22.6813 53.1258 21.2659 48.6671 19.4965C44.2084 17.7272 39.2897 15.1794 38.0512 14.507C36.7773 15.1794 32.0001 17.6387 27.4352 19.4965C22.8703 21.3543 18.0224 22.6813 16.4477 23.1413V33.3857C16.5003 35.724 16.7728 38.052 17.2616 40.3392C17.6637 42.3695 18.2989 44.3466 19.1548 46.2311C20.0533 48.1678 21.1692 49.9961 22.4811 51.6806C23.9707 53.5902 25.6613 55.3342 27.5237 56.8824C30.4999 59.6071 34.1046 61.5522 38.0158 62.5443ZM38.352 13.0031C38.352 13.0031 43.9076 15.9579 49.1979 18.0988C54.4882 20.2397 60.4685 21.9382 60.4685 21.9382L60.9993 22.0798V33.3857C60.939 35.8199 60.6487 38.2428 60.1324 40.6223C59.7065 42.7601 59.0417 44.8433 58.1507 46.8326C57.1823 48.8605 55.9957 50.7768 54.6121 52.5476C53.0442 54.5394 51.2644 56.3547 49.3041 57.9617C46.1082 60.9053 42.2086 62.977 37.9804 63.9774H37.8212C33.6006 62.9705 29.7083 60.8994 26.5152 57.9617C24.5548 56.3547 22.775 54.5394 21.2072 52.5476C19.8178 50.7808 18.6308 48.8638 17.6685 46.8326C16.8369 44.8378 16.2373 42.754 15.8815 40.6223C15.3774 38.2412 15.0931 35.8188 15.0322 33.3857V22.0798L15.5453 21.9382C15.5453 21.9382 21.5257 20.1689 26.8159 18.0988C32.1062 16.0287 37.6796 13.0031 37.6796 13.0031L38.0158 12.8262L38.352 13.0031Z" fill="white" stroke="white" stroke-width="0.4" stroke-miterlimit="10"/>
<path d="M38.0158 57.5189C41.1041 56.7603 43.9555 55.2464 46.314 53.1133C47.7882 51.8901 49.1285 50.5141 50.3126 49.0084C51.3425 47.6673 52.2263 46.22 52.9489 44.6913C53.6191 43.1954 54.1177 41.6284 54.4352 40.0202C54.8217 38.21 55.0408 36.368 55.0898 34.5176V26.3257C53.8336 25.9541 50.0649 24.804 46.5263 23.3709C42.9876 21.9377 39.0243 19.9561 38.0158 19.4961C37.0073 20.0269 33.221 21.9731 29.5761 23.4417C25.9313 24.9102 22.1804 25.9541 20.9418 26.3257V34.4292C20.9816 36.2802 21.2008 38.1231 21.5965 39.9318C21.914 41.5399 22.4125 43.1069 23.0827 44.6028C23.8054 46.1316 24.6891 47.5788 25.719 48.92C26.8968 50.4521 28.231 51.8575 29.7 53.1133C32.066 55.2453 34.9229 56.7589 38.0158 57.5189ZM38.2812 18.2929C38.2812 18.2929 42.6869 20.6461 46.8625 22.327C51.0381 24.0078 55.7091 25.3702 55.7091 25.3702L56.116 25.4764V34.4292C56.0675 36.3566 55.8424 38.2755 55.4437 40.1618C55.1038 41.8492 54.5756 43.4932 53.869 45.0628C53.1466 46.6602 52.2506 48.1732 51.1973 49.5746C49.9608 51.1451 48.5676 52.5857 47.0394 53.8741C44.504 56.1958 41.4154 57.8284 38.0689 58.6159H37.9451C34.6049 57.8256 31.5227 56.1932 28.9923 53.8741C27.4553 52.595 26.0612 51.1535 24.8343 49.5746C23.7491 48.1719 22.8234 46.6527 22.0742 45.0451C21.3589 43.4788 20.8304 41.8339 20.4995 40.1441C20.0921 38.2592 19.867 36.3395 19.8271 34.4115V25.4764L20.2341 25.3702C20.2341 25.3702 24.9582 24.0078 29.0807 22.327C33.2033 20.6461 37.6797 18.2929 37.6797 18.2929L37.9451 18.1514L38.2812 18.2929Z" fill="white"/>
<path d="M38.0158 57.5189C41.1041 56.7603 43.9555 55.2464 46.314 53.1133C47.7882 51.8901 49.1285 50.5141 50.3126 49.0084C51.3425 47.6673 52.2263 46.22 52.9489 44.6913C53.6191 43.1954 54.1177 41.6284 54.4352 40.0202C54.8217 38.21 55.0408 36.368 55.0898 34.5176V26.3257C53.8336 25.9541 50.0649 24.804 46.5263 23.3709C42.9876 21.9377 39.0243 19.9561 38.0158 19.4961C37.0073 20.0269 33.221 21.9731 29.5761 23.4417C25.9313 24.9102 22.1804 25.9541 20.9418 26.3257V34.4292C20.9816 36.2802 21.2008 38.1231 21.5965 39.9318C21.914 41.5399 22.4125 43.1069 23.0827 44.6028C23.8054 46.1316 24.6891 47.5788 25.719 48.92C26.8968 50.4521 28.231 51.8575 29.7 53.1133C32.066 55.2453 34.9229 56.7589 38.0158 57.5189ZM38.2812 18.2929C38.2812 18.2929 42.6869 20.6461 46.8625 22.327C51.0381 24.0078 55.7091 25.3702 55.7091 25.3702L56.116 25.4764V34.4292C56.0675 36.3566 55.8424 38.2755 55.4437 40.1618C55.1038 41.8492 54.5756 43.4932 53.869 45.0628C53.1466 46.6602 52.2506 48.1732 51.1973 49.5746C49.9608 51.1451 48.5676 52.5857 47.0394 53.8741C44.504 56.1958 41.4154 57.8284 38.0689 58.6159H37.9451C34.6049 57.8256 31.5227 56.1932 28.9923 53.8741C27.4553 52.595 26.0612 51.1535 24.8343 49.5746C23.7491 48.1719 22.8234 46.6527 22.0742 45.0451C21.3589 43.4788 20.8304 41.8339 20.4995 40.1441C20.0921 38.2592 19.867 36.3395 19.8271 34.4115V25.4764L20.2341 25.3702C20.2341 25.3702 24.9582 24.0078 29.0807 22.327C33.2033 20.6461 37.6797 18.2929 37.6797 18.2929L37.9451 18.1514L38.2812 18.2929Z" fill="white" stroke="white" stroke-width="0.4" stroke-miterlimit="10"/>
<path d="M40.8809 56.811C39.9788 57.2415 39.0284 57.5622 38.05 57.7665H37.9615C36.9839 57.5595 36.0338 57.2389 35.1306 56.811C33.1128 55.8948 31.2313 54.704 29.5395 53.2724C28.7434 52.6 28.0179 51.9277 27.3456 51.2377C26.7168 50.5634 26.1261 49.8546 25.5763 49.1145C25.0411 48.4232 24.5449 47.7025 24.09 46.9559C23.6572 46.2456 23.2615 45.5133 22.9046 44.7619C22.5647 44.0232 22.2635 43.2673 22.0022 42.4972C21.7366 41.6668 21.518 40.8221 21.3476 39.9671C21.1176 38.9585 20.976 37.9854 20.8698 37.1892C20.7615 36.2908 20.7024 35.3871 20.6929 34.4821V26.1309H20.8698C21.4891 25.954 22.7453 25.5647 24.4085 25.0516C26.0717 24.5385 27.8056 23.8839 29.5572 23.1761C30.9373 22.6277 32.3174 22.0084 33.5736 21.4068C35.5553 20.416 37.2715 19.4959 37.8908 19.1952H38.0146H38.1208C38.7577 19.5313 40.474 20.416 42.5441 21.3891C43.7826 21.9553 45.1627 22.5746 46.5428 23.1585C48.3121 23.8662 50.0814 24.5208 51.6915 25.0339C53.3016 25.547 54.5401 25.9363 55.2302 26.1132H55.4071V34.4114C55.3682 35.3414 55.2796 36.2687 55.1417 37.1892C55.0364 38.1459 54.8828 39.0966 54.6817 40.0378C54.5026 40.8693 54.2781 41.6903 54.0093 42.4972C53.7787 43.2478 53.4949 43.9809 53.1601 44.6912C52.8162 45.4457 52.4262 46.1785 51.9923 46.8851C51.5374 47.6317 51.0413 48.3524 50.5061 49.0437C49.9576 49.7691 49.3383 50.4592 48.7367 51.1669C48.0374 51.8908 47.2991 52.5759 46.5251 53.2193C44.8203 54.6737 42.9205 55.8827 40.8809 56.811ZM38.0146 57.2534C38.9379 57.0598 39.8348 56.7569 40.6863 56.351C42.6605 55.4245 44.4998 54.234 46.1535 52.8124C46.932 52.14 47.6575 51.4677 48.3121 50.7953C48.9369 50.136 49.5275 49.4451 50.0814 48.7252C50.6066 48.053 51.0911 47.3499 51.5323 46.6197C51.9746 45.8943 52.3462 45.1866 52.7 44.4611C53.0443 43.7788 53.3457 43.0756 53.6024 42.3556C53.8618 41.5414 54.0803 40.7147 54.257 39.8786C54.4694 38.8878 54.6109 37.9323 54.7171 37.0831C54.826 36.2024 54.8851 35.3164 54.894 34.4291V26.5733L51.6207 25.5293C50.046 25.0162 48.2059 24.3616 46.4366 23.6539C45.0565 23.1054 43.6588 22.4861 42.4026 21.8845C40.4209 20.9645 38.8639 20.1152 38.0854 19.7613C37.3777 20.1329 35.7322 20.9645 33.7682 21.8845C32.4943 22.4861 31.0966 23.1054 29.7342 23.6539C27.9648 24.3616 26.1071 25.0162 24.55 25.5293L21.1883 26.5733V34.4821C21.2056 35.3697 21.2706 36.2556 21.383 37.1361C21.4871 38.0754 21.6407 39.0085 21.843 39.9317C22.0053 40.7694 22.218 41.5966 22.4799 42.4087C22.7125 43.1389 22.9902 43.8539 23.3115 44.5496C23.6477 45.275 24.0369 45.9828 24.4616 46.7082C24.8862 47.4336 25.3816 48.106 25.9124 48.8137C26.4432 49.5214 27.0448 50.1938 27.6818 50.8838C28.3187 51.5738 29.0618 52.2285 29.858 52.9008C31.5088 54.3264 33.3486 55.5172 35.3252 56.4395C36.1844 56.8214 37.0878 57.0948 38.0146 57.2534ZM42.6679 20.7522C40.1024 19.4959 38.1562 18.5228 38.1562 18.5228L38.0146 18.4343L37.8554 18.5228C37.6961 18.5228 33.3613 20.9114 29.2565 22.5569C27.841 23.1231 26.3725 23.6539 25.0455 24.0962C22.4799 24.9809 20.4098 25.5824 20.3037 25.6001H20.0737V34.3583C20.0886 35.3047 20.1536 36.2497 20.2683 37.1892C20.3744 38.0739 20.516 39.0647 20.746 40.1086C20.976 41.1525 21.1529 41.8779 21.4183 42.7095C21.6686 43.4753 21.964 44.2256 22.303 44.9566C22.6714 45.7316 23.0789 46.4875 23.5238 47.2213C23.9903 47.9914 24.4983 48.7356 25.0455 49.4506C25.6116 50.1584 26.2309 50.8838 26.9209 51.5915C27.6319 52.3329 28.382 53.0357 29.168 53.697C31.6692 55.9882 34.7144 57.6021 38.0146 58.3857C41.3118 57.5941 44.3551 55.9811 46.8613 53.697C47.6751 53.007 48.4183 52.2993 49.1083 51.5915C49.7675 50.9135 50.3877 50.1988 50.9661 49.4506C51.5192 48.7399 52.0274 47.9954 52.4877 47.2213C52.9391 46.4912 53.3468 45.735 53.7085 44.9566C54.0417 44.2253 54.3312 43.475 54.5755 42.7095C54.8886 41.8579 55.1544 40.9896 55.3717 40.1086C55.584 39.0647 55.7433 38.0739 55.8494 37.1892C55.9617 36.2731 56.0266 35.3518 56.0441 34.4291V25.6709H55.814C55.7079 25.6709 53.6378 25.0339 51.0546 24.1493C49.7276 23.7069 48.259 23.1761 46.8613 22.61C45.4635 22.0438 43.9596 21.3537 42.6679 20.7522ZM38.3862 18.0628C38.3862 18.0628 40.3678 19.1244 42.8803 20.3098C44.1542 20.8937 45.5696 21.5307 46.9674 22.0792C48.3652 22.6277 49.816 23.1585 51.1253 23.6008C53.7616 24.5031 55.8494 25.1047 55.8494 25.1047L56.451 25.2816V34.4114C56.4317 35.3399 56.3668 36.267 56.2564 37.1892C56.1502 38.0739 55.991 39.0824 55.7787 40.144C55.5663 41.2056 55.354 41.9133 55.0709 42.798C54.8208 43.5812 54.5254 44.3492 54.1863 45.0981C53.8147 45.8766 53.4078 46.6551 52.9477 47.4159C52.4877 48.1767 51.9569 48.9375 51.3907 49.6807C50.7939 50.4459 50.156 51.1783 49.4799 51.8746C48.7571 52.6278 47.9953 53.3424 47.1974 54.0155C44.6319 56.3639 41.5067 58.0149 38.1208 58.8104H37.9085C34.5269 58.0428 31.4005 56.4157 28.8318 54.0863C28.0244 53.4177 27.2564 52.7029 26.5317 51.9454C25.8611 51.2491 25.2291 50.5167 24.6385 49.7514C24.0738 49.029 23.5538 48.2727 23.0815 47.4867C22.6215 46.7259 22.2145 45.9474 21.843 45.1689C21.4905 44.4235 21.189 43.655 20.9406 42.8687C20.6653 41.9965 20.435 41.1107 20.2506 40.2148C20.0206 39.1532 19.8613 38.1446 19.7552 37.26C19.643 36.3202 19.5781 35.3754 19.5605 34.4291V25.2993L20.1621 25.1224C20.1621 25.1224 22.2499 24.5208 24.8862 23.6185C26.2132 23.1761 27.6641 22.6453 29.0618 22.0969C33.1667 20.4514 37.4661 18.1513 37.6784 18.0805L38.0677 17.8682L38.3862 18.0628Z" fill="white"/>
<path d="M40.8809 56.811C39.9788 57.2415 39.0284 57.5622 38.05 57.7665H37.9615C36.9839 57.5595 36.0338 57.2389 35.1306 56.811C33.1128 55.8948 31.2313 54.704 29.5395 53.2724C28.7434 52.6 28.0179 51.9277 27.3456 51.2377C26.7168 50.5634 26.1261 49.8546 25.5763 49.1145C25.0411 48.4232 24.5449 47.7025 24.09 46.9559C23.6572 46.2456 23.2615 45.5133 22.9046 44.7619C22.5647 44.0232 22.2635 43.2673 22.0022 42.4972C21.7366 41.6668 21.518 40.8221 21.3476 39.9671C21.1176 38.9585 20.976 37.9854 20.8698 37.1892C20.7615 36.2908 20.7024 35.3871 20.6929 34.4821V26.1309H20.8698C21.4891 25.954 22.7453 25.5647 24.4085 25.0516C26.0717 24.5385 27.8056 23.8839 29.5572 23.1761C30.9373 22.6277 32.3174 22.0084 33.5736 21.4068C35.5553 20.416 37.2715 19.4959 37.8908 19.1952H38.0146H38.1208C38.7577 19.5313 40.474 20.416 42.5441 21.3891C43.7826 21.9553 45.1627 22.5746 46.5428 23.1585C48.3121 23.8662 50.0814 24.5208 51.6915 25.0339C53.3016 25.547 54.5401 25.9363 55.2302 26.1132H55.4071V34.4114C55.3682 35.3414 55.2796 36.2687 55.1417 37.1892C55.0364 38.1459 54.8828 39.0966 54.6817 40.0378C54.5026 40.8693 54.2781 41.6903 54.0093 42.4972C53.7787 43.2478 53.4949 43.9809 53.1601 44.6912C52.8162 45.4457 52.4262 46.1785 51.9923 46.8851C51.5374 47.6317 51.0413 48.3524 50.5061 49.0437C49.9576 49.7691 49.3383 50.4592 48.7367 51.1669C48.0374 51.8908 47.2991 52.5759 46.5251 53.2193C44.8203 54.6737 42.9205 55.8827 40.8809 56.811ZM38.0146 57.2534C38.9379 57.0598 39.8348 56.7569 40.6863 56.351C42.6605 55.4245 44.4998 54.234 46.1535 52.8124C46.932 52.14 47.6575 51.4677 48.3121 50.7953C48.9369 50.136 49.5275 49.4451 50.0814 48.7252C50.6066 48.053 51.0911 47.3499 51.5323 46.6197C51.9746 45.8943 52.3462 45.1866 52.7 44.4611C53.0443 43.7788 53.3457 43.0756 53.6024 42.3556C53.8618 41.5414 54.0803 40.7147 54.257 39.8786C54.4694 38.8878 54.6109 37.9323 54.7171 37.0831C54.826 36.2024 54.8851 35.3164 54.894 34.4291V26.5733L51.6207 25.5293C50.046 25.0162 48.2059 24.3616 46.4366 23.6539C45.0565 23.1054 43.6588 22.4861 42.4026 21.8845C40.4209 20.9645 38.8639 20.1152 38.0854 19.7613C37.3777 20.1329 35.7322 20.9645 33.7682 21.8845C32.4943 22.4861 31.0966 23.1054 29.7342 23.6539C27.9648 24.3616 26.1071 25.0162 24.55 25.5293L21.1883 26.5733V34.4821C21.2056 35.3697 21.2706 36.2556 21.383 37.1361C21.4871 38.0754 21.6407 39.0085 21.843 39.9317C22.0053 40.7694 22.218 41.5966 22.4799 42.4087C22.7125 43.1389 22.9902 43.8539 23.3115 44.5496C23.6477 45.275 24.0369 45.9828 24.4616 46.7082C24.8862 47.4336 25.3816 48.106 25.9124 48.8137C26.4432 49.5214 27.0448 50.1938 27.6818 50.8838C28.3187 51.5738 29.0618 52.2285 29.858 52.9008C31.5088 54.3264 33.3486 55.5172 35.3252 56.4395C36.1844 56.8214 37.0878 57.0948 38.0146 57.2534ZM42.6679 20.7522C40.1024 19.4959 38.1562 18.5228 38.1562 18.5228L38.0146 18.4343L37.8554 18.5228C37.6961 18.5228 33.3613 20.9114 29.2565 22.5569C27.841 23.1231 26.3725 23.6539 25.0455 24.0962C22.4799 24.9809 20.4098 25.5824 20.3037 25.6001H20.0737V34.3583C20.0886 35.3047 20.1536 36.2497 20.2683 37.1892C20.3744 38.0739 20.516 39.0647 20.746 40.1086C20.976 41.1525 21.1529 41.8779 21.4183 42.7095C21.6686 43.4753 21.964 44.2256 22.303 44.9566C22.6714 45.7316 23.0789 46.4875 23.5238 47.2213C23.9903 47.9914 24.4983 48.7356 25.0455 49.4506C25.6116 50.1584 26.2309 50.8838 26.9209 51.5915C27.6319 52.3329 28.382 53.0357 29.168 53.697C31.6692 55.9882 34.7144 57.6021 38.0146 58.3857C41.3118 57.5941 44.3551 55.9811 46.8613 53.697C47.6751 53.007 48.4183 52.2993 49.1083 51.5915C49.7675 50.9135 50.3877 50.1988 50.9661 49.4506C51.5192 48.7399 52.0274 47.9954 52.4877 47.2213C52.9391 46.4912 53.3468 45.735 53.7085 44.9566C54.0417 44.2253 54.3312 43.475 54.5755 42.7095C54.8886 41.8579 55.1544 40.9896 55.3717 40.1086C55.584 39.0647 55.7433 38.0739 55.8494 37.1892C55.9617 36.2731 56.0266 35.3518 56.0441 34.4291V25.6709H55.814C55.7079 25.6709 53.6378 25.0339 51.0546 24.1493C49.7276 23.7069 48.259 23.1761 46.8613 22.61C45.4635 22.0438 43.9596 21.3537 42.6679 20.7522ZM38.3862 18.0628C38.3862 18.0628 40.3678 19.1244 42.8803 20.3098C44.1542 20.8937 45.5696 21.5307 46.9674 22.0792C48.3652 22.6277 49.816 23.1585 51.1253 23.6008C53.7616 24.5031 55.8494 25.1047 55.8494 25.1047L56.451 25.2816V34.4114C56.4317 35.3399 56.3668 36.267 56.2564 37.1892C56.1502 38.0739 55.991 39.0824 55.7787 40.144C55.5663 41.2056 55.354 41.9133 55.0709 42.798C54.8208 43.5812 54.5254 44.3492 54.1863 45.0981C53.8147 45.8766 53.4078 46.6551 52.9477 47.4159C52.4877 48.1767 51.9569 48.9375 51.3907 49.6807C50.7939 50.4459 50.156 51.1783 49.4799 51.8746C48.7571 52.6278 47.9953 53.3424 47.1974 54.0155C44.6319 56.3639 41.5067 58.0149 38.1208 58.8104H37.9085C34.5269 58.0428 31.4005 56.4157 28.8318 54.0863C28.0244 53.4177 27.2564 52.7029 26.5317 51.9454C25.8611 51.2491 25.2291 50.5167 24.6385 49.7514C24.0738 49.029 23.5538 48.2727 23.0815 47.4867C22.6215 46.7259 22.2145 45.9474 21.843 45.1689C21.4905 44.4235 21.189 43.655 20.9406 42.8687C20.6653 41.9965 20.435 41.1107 20.2506 40.2148C20.0206 39.1532 19.8613 38.1446 19.7552 37.26C19.643 36.3202 19.5781 35.3754 19.5605 34.4291V25.2993L20.1621 25.1224C20.1621 25.1224 22.2499 24.5208 24.8862 23.6185C26.2132 23.1761 27.6641 22.6453 29.0618 22.0969C33.1667 20.4514 37.4661 18.1513 37.6784 18.0805L38.0677 17.8682L38.3862 18.0628Z" fill="white" stroke="white" stroke-width="0.4" stroke-miterlimit="10"/>
</svg>
