<svg width="76" height="76" viewBox="0 0 76 76" fill="none" xmlns="http://www.w3.org/2000/svg">
<circle cx="38" cy="38" r="38" fill="#167667"/>
<path d="M52.5912 22.9908C50.6732 21.0728 48.3963 19.5514 45.8903 18.5134C43.3844 17.4754 40.6985 16.9411 37.9861 16.9411C35.2736 16.9411 32.5878 17.4754 30.0818 18.5134C27.5759 19.5514 25.2989 21.0728 23.3809 22.9908C21.4629 24.9088 19.9415 27.1857 18.9035 29.6917C17.8655 32.1976 17.3313 34.8835 17.3313 37.5959C17.3313 40.3084 17.8655 42.9942 18.9035 45.5002C19.9415 48.0061 21.4629 50.2831 23.3809 52.2011C25.2989 54.1191 27.5759 55.6405 30.0818 56.6785C32.5878 57.7165 35.2736 58.2507 37.9861 58.2507C40.6985 58.2507 43.3844 57.7165 45.8903 56.6785C48.3963 55.6405 50.6732 54.1191 52.5912 52.2011C54.5092 50.2831 56.0306 48.0061 57.0686 45.5002C58.1066 42.9942 58.6409 40.3084 58.6409 37.5959C58.6409 34.8835 58.1066 32.1976 57.0686 29.6917C56.0306 27.1857 54.5092 24.9088 52.5912 22.9908ZM37.9861 15.5723C42.3405 15.5743 46.5966 16.867 50.2166 19.2871C53.8365 21.7072 56.6578 25.1461 58.3239 29.1692C59.99 33.1923 60.4262 37.6189 59.5772 41.8898C58.7282 46.1607 56.6323 50.084 53.5542 53.1641C51.5291 55.2938 49.0982 56.9967 46.4048 58.1724C43.7114 59.3482 40.8099 59.9729 37.8712 60.0099C34.9326 60.0469 32.0163 59.4954 29.2941 58.3879C26.572 57.2804 24.099 55.6392 22.0209 53.5611C19.9428 51.483 18.3016 49.01 17.1941 46.2879C16.0866 43.5657 15.5351 40.6494 15.5721 37.7108C15.6091 34.7721 16.2338 31.8706 17.4096 29.1772C18.5853 26.4838 20.2882 24.0529 22.4179 22.0278C24.4579 19.9769 26.884 18.3504 29.5561 17.2424C32.2282 16.1344 35.0934 15.5668 37.9861 15.5723Z" fill="white"/>
<path d="M52.5912 22.9908C50.6732 21.0728 48.3963 19.5514 45.8903 18.5134C43.3844 17.4754 40.6985 16.9411 37.9861 16.9411C35.2736 16.9411 32.5878 17.4754 30.0818 18.5134C27.5759 19.5514 25.2989 21.0728 23.3809 22.9908C21.4629 24.9088 19.9415 27.1857 18.9035 29.6917C17.8655 32.1976 17.3313 34.8835 17.3313 37.5959C17.3313 40.3084 17.8655 42.9942 18.9035 45.5002C19.9415 48.0061 21.4629 50.2831 23.3809 52.2011C25.2989 54.1191 27.5759 55.6405 30.0818 56.6785C32.5878 57.7165 35.2736 58.2507 37.9861 58.2507C40.6985 58.2507 43.3844 57.7165 45.8903 56.6785C48.3963 55.6405 50.6732 54.1191 52.5912 52.2011C54.5092 50.2831 56.0306 48.0061 57.0686 45.5002C58.1066 42.9942 58.6409 40.3084 58.6409 37.5959C58.6409 34.8835 58.1066 32.1976 57.0686 29.6917C56.0306 27.1857 54.5092 24.9088 52.5912 22.9908ZM37.9861 15.5723C42.3405 15.5743 46.5966 16.867 50.2166 19.2871C53.8365 21.7072 56.6578 25.1461 58.3239 29.1692C59.99 33.1923 60.4262 37.6189 59.5772 41.8898C58.7282 46.1607 56.6323 50.084 53.5542 53.1641C51.5291 55.2938 49.0982 56.9967 46.4048 58.1724C43.7114 59.3482 40.8099 59.9729 37.8712 60.0099C34.9326 60.0469 32.0163 59.4954 29.2941 58.3879C26.572 57.2804 24.099 55.6392 22.0209 53.5611C19.9428 51.483 18.3016 49.01 17.1941 46.2879C16.0866 43.5657 15.5351 40.6494 15.5721 37.7108C15.6091 34.7721 16.2338 31.8706 17.4096 29.1772C18.5853 26.4838 20.2882 24.0529 22.4179 22.0278C24.4579 19.9769 26.884 18.3504 29.5561 17.2424C32.2282 16.1344 35.0934 15.5668 37.9861 15.5723Z" fill="white" stroke="white" stroke-width="0.4" stroke-miterlimit="10"/>
<path d="M42.7831 25.915C45.4886 27.0425 47.7199 29.0725 49.0975 31.6597C50.475 34.2469 50.9136 37.2315 50.3387 40.1056C49.7638 42.9797 48.2108 45.5659 45.9441 47.4241C43.6774 49.2823 40.8368 50.2978 37.9058 50.2978C34.9747 50.2978 32.1342 49.2823 29.8675 47.4241C27.6007 45.5659 26.0478 42.9797 25.4729 40.1056C24.898 37.2315 25.3366 34.2469 26.7141 31.6597C28.0916 29.0725 30.323 27.0425 33.0285 25.915L33.5635 27.1633C31.5191 28.0122 29.7656 29.4372 28.5168 31.2649C27.3761 32.9757 26.7212 34.9639 26.6219 37.0176C26.5226 39.0713 26.9825 41.1135 27.9526 42.9264C28.9228 44.7392 30.3668 46.2547 32.1306 47.3114C33.8945 48.368 35.9121 48.926 37.9682 48.926C40.0243 48.926 42.0419 48.368 43.8057 47.3114C45.5696 46.2547 47.0136 44.7392 47.9837 42.9264C48.9539 41.1135 49.4138 39.0713 49.3145 37.0176C49.2151 34.9639 48.5602 32.9757 47.4196 31.2649C46.1727 29.4072 44.4134 27.9513 42.3551 27.0742L42.7831 25.915Z" fill="white"/>
<path d="M42.7831 25.915C45.4886 27.0425 47.7199 29.0725 49.0975 31.6597C50.475 34.2469 50.9136 37.2315 50.3387 40.1056C49.7638 42.9797 48.2108 45.5659 45.9441 47.4241C43.6774 49.2823 40.8368 50.2978 37.9058 50.2978C34.9747 50.2978 32.1342 49.2823 29.8675 47.4241C27.6007 45.5659 26.0478 42.9797 25.4729 40.1056C24.898 37.2315 25.3366 34.2469 26.7141 31.6597C28.0916 29.0725 30.323 27.0425 33.0285 25.915L33.5635 27.1633C31.5191 28.0122 29.7656 29.4372 28.5168 31.2649C27.3761 32.9757 26.7212 34.9639 26.6219 37.0176C26.5226 39.0713 26.9825 41.1135 27.9526 42.9264C28.9228 44.7392 30.3668 46.2547 32.1306 47.3114C33.8945 48.368 35.9121 48.926 37.9682 48.926C40.0243 48.926 42.0419 48.368 43.8057 47.3114C45.5696 46.2547 47.0136 44.7392 47.9837 42.9264C48.9539 41.1135 49.4138 39.0713 49.3145 37.0176C49.2151 34.9639 48.5602 32.9757 47.4196 31.2649C46.1727 29.4072 44.4134 27.9513 42.3551 27.0742L42.7831 25.915Z" fill="white" stroke="white" stroke-width="0.4" stroke-miterlimit="10"/>
<path d="M38.6629 21.3145H37.3076V35.5808H38.6629V21.3145Z" fill="white"/>
<path d="M38.6629 21.3145H37.3076V35.5808H38.6629V21.3145Z" fill="white" stroke="white" stroke-width="0.4" stroke-miterlimit="10"/>
</svg>
