<svg width="76" height="76" viewBox="0 0 76 76" fill="none" xmlns="http://www.w3.org/2000/svg">
<circle cx="38" cy="38" r="38" fill="#167667"/>
<path d="M40.7655 50.6389C40.2528 50.1156 39.6408 49.6999 38.9655 49.4161C38.2901 49.1324 37.565 48.9862 36.8324 48.9862C36.0999 48.9862 35.3747 49.1324 34.6993 49.4161C34.024 49.6999 33.412 50.1156 32.8994 50.6389C32.3807 51.1529 31.9706 51.766 31.6936 52.4416C31.4166 53.1173 31.2782 53.8417 31.2868 54.5719C31.2868 56.0393 31.8684 57.4469 32.9041 58.4863C33.9399 59.5258 35.3454 60.1123 36.8127 60.1175C38.2801 60.1123 39.6856 59.5258 40.7214 58.4863C41.7571 57.4469 42.3387 56.0393 42.3387 54.5719C42.3524 53.8445 42.2202 53.1217 41.95 52.4462C41.6798 51.7707 41.2771 51.1562 40.7655 50.6389ZM36.8324 47.5121C38.4677 47.4952 40.0582 48.0465 41.3322 49.072C42.6062 50.0974 43.4847 51.5334 43.8176 53.1346C44.1505 54.7358 43.9171 56.4029 43.1574 57.8511C42.3977 59.2994 41.1587 60.439 39.6521 61.0752C38.1455 61.7115 36.4648 61.8049 34.8969 61.3396C33.3291 60.8743 31.9714 59.8791 31.0558 58.524C30.1402 57.1689 29.7235 55.5379 29.8768 53.9097C30.0301 52.2815 30.744 50.757 31.8964 49.5966C32.5443 48.9397 33.3157 48.4174 34.1662 48.0597C35.0166 47.702 35.9294 47.5159 36.8521 47.5121H36.8324Z" fill="white"/>
<path d="M40.7655 50.6389C40.2528 50.1156 39.6408 49.6999 38.9655 49.4161C38.2901 49.1324 37.565 48.9862 36.8324 48.9862C36.0999 48.9862 35.3747 49.1324 34.6993 49.4161C34.024 49.6999 33.412 50.1156 32.8994 50.6389C32.3807 51.1529 31.9706 51.766 31.6936 52.4416C31.4166 53.1173 31.2782 53.8417 31.2868 54.5719C31.2868 56.0393 31.8684 57.4469 32.9041 58.4863C33.9399 59.5258 35.3454 60.1123 36.8127 60.1175C38.2801 60.1123 39.6856 59.5258 40.7214 58.4863C41.7571 57.4469 42.3387 56.0393 42.3387 54.5719C42.3524 53.8445 42.2202 53.1217 41.95 52.4462C41.6798 51.7707 41.2771 51.1562 40.7655 50.6389ZM36.8324 47.5121C38.4677 47.4952 40.0582 48.0465 41.3322 49.072C42.6062 50.0974 43.4847 51.5334 43.8176 53.1346C44.1505 54.7358 43.9171 56.4029 43.1574 57.8511C42.3977 59.2994 41.1587 60.439 39.6521 61.0752C38.1455 61.7115 36.4648 61.8049 34.8969 61.3396C33.3291 60.8743 31.9714 59.8791 31.0558 58.524C30.1402 57.1689 29.7235 55.5379 29.8768 53.9097C30.0301 52.2815 30.744 50.757 31.8964 49.5966C32.5443 48.9397 33.3157 48.4174 34.1662 48.0597C35.0166 47.702 35.9294 47.5159 36.8521 47.5121H36.8324Z" fill="white" stroke="white" stroke-width="0.4" stroke-miterlimit="10"/>
<path d="M42.1803 14.0625V44.1897C44.2582 45.2659 45.9629 46.9444 47.0712 49.0055C48.1795 51.0665 48.6398 53.4142 48.3918 55.7411C48.1439 58.0681 47.1992 60.266 45.6815 62.0473C44.1638 63.8285 42.1438 65.1101 39.8857 65.7244C37.6276 66.3386 35.2367 66.2569 33.0258 65.4899C30.8149 64.7229 28.8871 63.3064 27.4945 61.4256C26.102 59.5449 25.3097 57.2876 25.2212 54.9491C25.1327 52.6107 25.7522 50.2999 26.9987 48.3194C28.1009 46.6011 29.624 45.1931 31.4234 44.229V14.0625H32.9179V45.1729L32.4853 45.3696C30.7587 46.2032 29.3006 47.5045 28.2769 49.1257C27.1781 50.8704 26.6369 52.9085 26.7254 54.9685C26.8138 57.0286 27.5278 59.0128 28.7721 60.6569C30.0165 62.301 31.7321 63.5271 33.6907 64.1718C35.6493 64.8164 37.7578 64.8491 39.7354 64.2655C41.713 63.6819 43.4659 62.5097 44.7606 60.9049C46.0554 59.3002 46.8305 57.3391 46.9828 55.2828C47.1352 53.2265 46.6574 51.1726 45.6133 49.3946C44.5691 47.6166 43.008 46.1989 41.138 45.3303L40.7054 45.1336V14.0625H42.1803Z" fill="white"/>
<path d="M42.1803 14.0625V44.1897C44.2582 45.2659 45.9629 46.9444 47.0712 49.0055C48.1795 51.0665 48.6398 53.4142 48.3918 55.7411C48.1439 58.0681 47.1992 60.266 45.6815 62.0473C44.1638 63.8285 42.1438 65.1101 39.8857 65.7244C37.6276 66.3386 35.2367 66.2569 33.0258 65.4899C30.8149 64.7229 28.8871 63.3064 27.4945 61.4256C26.102 59.5449 25.3097 57.2876 25.2212 54.9491C25.1327 52.6107 25.7522 50.2999 26.9987 48.3194C28.1009 46.6011 29.624 45.1931 31.4234 44.229V14.0625H32.9179V45.1729L32.4853 45.3696C30.7587 46.2032 29.3006 47.5045 28.2769 49.1257C27.1781 50.8704 26.6369 52.9085 26.7254 54.9685C26.8138 57.0286 27.5278 59.0128 28.7721 60.6569C30.0165 62.301 31.7321 63.5271 33.6907 64.1718C35.6493 64.8164 37.7578 64.8491 39.7354 64.2655C41.713 63.6819 43.4659 62.5097 44.7606 60.9049C46.0554 59.3002 46.8305 57.3391 46.9828 55.2828C47.1352 53.2265 46.6574 51.1726 45.6133 49.3946C44.5691 47.6166 43.008 46.1989 41.138 45.3303L40.7054 45.1336V14.0625H42.1803Z" fill="white" stroke="white" stroke-width="0.4" stroke-miterlimit="10"/>
<path d="M31.4238 14.0629C31.5067 12.6927 32.1095 11.4057 33.109 10.4648C34.1086 9.52393 35.4295 9 36.8023 9C38.175 9 39.496 9.52393 40.4955 10.4648C41.4951 11.4057 42.0978 12.6927 42.1807 14.0629H40.6862C40.6767 13.0379 40.2674 12.0572 39.5456 11.3294C38.9946 10.8106 38.3057 10.4618 37.5615 10.3248C36.8172 10.1878 36.0492 10.2684 35.3496 10.5569C34.65 10.8455 34.0485 11.3297 33.6173 11.9516C33.1861 12.5735 32.9434 13.3066 32.9184 14.0629H31.4238Z" fill="white"/>
<path d="M31.4238 14.0629C31.5067 12.6927 32.1095 11.4057 33.109 10.4648C34.1086 9.52393 35.4295 9 36.8023 9C38.175 9 39.496 9.52393 40.4955 10.4648C41.4951 11.4057 42.0978 12.6927 42.1807 14.0629H40.6862C40.6767 13.0379 40.2674 12.0572 39.5456 11.3294C38.9946 10.8106 38.3057 10.4618 37.5615 10.3248C36.8172 10.1878 36.0492 10.2684 35.3496 10.5569C34.65 10.8455 34.0485 11.3297 33.6173 11.9516C33.1861 12.5735 32.9434 13.3066 32.9184 14.0629H31.4238Z" fill="white" stroke="white" stroke-width="0.4" stroke-miterlimit="10"/>
<path d="M37.5991 14.3584H36.1045V48.2613H37.5991V14.3584Z" fill="white"/>
<path d="M37.5991 14.3584H36.1045V48.2613H37.5991V14.3584Z" fill="white" stroke="white" stroke-width="0.4" stroke-miterlimit="10"/>
<path d="M32.1702 14.8096H28.6895V16.3041H32.1702V14.8096Z" fill="white"/>
<path d="M32.1702 14.8096H28.6895V16.3041H32.1702V14.8096Z" fill="white" stroke="white" stroke-width="0.4" stroke-miterlimit="10"/>
<path d="M32.1702 22.0859H28.6895V23.5805H32.1702V22.0859Z" fill="white"/>
<path d="M32.1702 22.0859H28.6895V23.5805H32.1702V22.0859Z" fill="white" stroke="white" stroke-width="0.4" stroke-miterlimit="10"/>
<path d="M32.1702 29.3818H28.6895V30.8764H32.1702V29.3818Z" fill="white"/>
<path d="M32.1702 29.3818H28.6895V30.8764H32.1702V29.3818Z" fill="white" stroke="white" stroke-width="0.4" stroke-miterlimit="10"/>
<path d="M32.1702 36.6768H28.6895V38.1713H32.1702V36.6768Z" fill="white"/>
<path d="M32.1702 36.6768H28.6895V38.1713H32.1702V36.6768Z" fill="white" stroke="white" stroke-width="0.4" stroke-miterlimit="10"/>
<path d="M52.4661 50.8555C53.0013 51.2918 53.4314 51.8429 53.7247 52.468C54.0216 53.0811 54.1762 53.7533 54.177 54.4345C54.1846 55.1527 54.0158 55.8618 53.6853 56.4994C53.362 57.1447 52.8903 57.7041 52.3088 58.1316L51.4238 56.932C51.8131 56.642 52.1295 56.2653 52.3479 55.8318C52.5664 55.3984 52.6809 54.92 52.6824 54.4345C52.685 53.9661 52.5843 53.5028 52.3874 53.0776C52.1858 52.6555 51.8898 52.2854 51.5222 51.9961L52.4661 50.8555Z" fill="white"/>
<path d="M52.4661 50.8555C53.0013 51.2918 53.4314 51.8429 53.7247 52.468C54.0216 53.0811 54.1762 53.7533 54.177 54.4345C54.1846 55.1527 54.0158 55.8618 53.6853 56.4994C53.362 57.1447 52.8903 57.7041 52.3088 58.1316L51.4238 56.932C51.8131 56.642 52.1295 56.2653 52.3479 55.8318C52.5664 55.3984 52.6809 54.92 52.6824 54.4345C52.685 53.9661 52.5843 53.5028 52.3874 53.0776C52.1858 52.6555 51.8898 52.2854 51.5222 51.9961L52.4661 50.8555Z" fill="white" stroke="white" stroke-width="0.4" stroke-miterlimit="10"/>
<path d="M54.9037 48.1621C55.8433 48.9077 56.6029 49.8555 57.1259 50.9349C57.6688 52.0359 57.9512 53.2471 57.9512 54.4747C57.9512 55.7022 57.6688 56.9134 57.1259 58.0144C56.5629 59.1412 55.7407 60.1185 54.7267 60.8659L53.8418 59.6466C54.6617 59.0422 55.3288 58.2544 55.7898 57.3461C56.2507 56.4378 56.4928 55.4342 56.4966 54.4157C56.479 53.4239 56.2369 52.449 55.7887 51.5642C55.3711 50.6846 54.7592 49.9113 53.9991 49.3027L54.9037 48.1621Z" fill="white"/>
<path d="M54.9037 48.1621C55.8433 48.9077 56.6029 49.8555 57.1259 50.9349C57.6688 52.0359 57.9512 53.2471 57.9512 54.4747C57.9512 55.7022 57.6688 56.9134 57.1259 58.0144C56.5629 59.1412 55.7407 60.1185 54.7267 60.8659L53.8418 59.6466C54.6617 59.0422 55.3288 58.2544 55.7898 57.3461C56.2507 56.4378 56.4928 55.4342 56.4966 54.4157C56.479 53.4239 56.2369 52.449 55.7887 51.5642C55.3711 50.6846 54.7592 49.9113 53.9991 49.3027L54.9037 48.1621Z" fill="white" stroke="white" stroke-width="0.4" stroke-miterlimit="10"/>
<path d="M57.3815 45.665C59.3875 47.2655 60.7788 49.51 61.3199 52.0186C61.8611 54.5271 61.5188 57.1456 60.3509 59.4307C59.5621 60.9811 58.4245 62.3274 57.0275 63.3638L56.1426 62.1642C57.3494 61.259 58.3318 60.0882 59.0137 58.7424C59.704 57.3981 60.0615 55.9076 60.056 54.3964C60.0537 52.9477 59.7314 51.5174 59.112 50.2077C58.4914 48.9013 57.5758 47.7569 56.4376 46.8646L57.3815 45.665Z" fill="white"/>
<path d="M57.3815 45.665C59.3875 47.2655 60.7788 49.51 61.3199 52.0186C61.8611 54.5271 61.5188 57.1456 60.3509 59.4307C59.5621 60.9811 58.4245 62.3274 57.0275 63.3638L56.1426 62.1642C57.3494 61.259 58.3318 60.0882 59.0137 58.7424C59.704 57.3981 60.0615 55.9076 60.056 54.3964C60.0537 52.9477 59.7314 51.5174 59.112 50.2077C58.4914 48.9013 57.5758 47.7569 56.4376 46.8646L57.3815 45.665Z" fill="white" stroke="white" stroke-width="0.4" stroke-miterlimit="10"/>
<path fill-rule="evenodd" clip-rule="evenodd" d="M22.928 27.3379C22.8631 27.0734 22.7708 26.8164 22.6527 26.571L19.2506 20.8287C17.9527 23.0116 16.0845 26.099 15.8682 26.5513C15.7504 26.8037 15.6582 27.0672 15.5929 27.3379C15.5296 27.6154 15.4966 27.8989 15.4946 28.1835C15.5086 29.1825 15.9024 30.1388 16.5958 30.858C17.3105 31.5392 18.2635 31.9133 19.2506 31.9003C20.2469 31.8915 21.2028 31.505 21.9251 30.8187C22.6114 30.0964 22.9979 29.1405 23.0067 28.1442C23.0083 27.8735 22.9819 27.6033 22.928 27.3379ZM23.99 25.8827C24.3239 26.604 24.4983 27.3887 24.5012 28.1835C24.5012 28.9734 24.323 29.7531 23.9799 30.4645C23.6368 31.176 23.1375 31.8008 22.5194 32.2926C21.9013 32.7843 21.1802 33.1302 20.4098 33.3046C19.6394 33.479 18.8396 33.4773 18.07 33.2997C17.3003 33.1221 16.5807 32.7731 15.9646 32.2788C15.3486 31.7845 14.852 31.1575 14.5118 30.4447C14.1717 29.7318 13.9967 28.9514 14 28.1615C14.0034 27.3716 14.1848 26.5927 14.531 25.8827C14.8849 25.1748 19.2506 18.0166 19.2506 18.0166L23.99 25.8827Z" fill="white"/>
<path d="M22.928 27.3379C22.8631 27.0734 22.7708 26.8164 22.6527 26.571L19.2506 20.8287C17.9527 23.0116 16.0845 26.099 15.8682 26.5513C15.7504 26.8037 15.6582 27.0672 15.5929 27.3379C15.5296 27.6154 15.4966 27.8989 15.4946 28.1835C15.5086 29.1825 15.9024 30.1388 16.5958 30.858C17.3105 31.5392 18.2635 31.9133 19.2506 31.9003C20.2469 31.8915 21.2028 31.505 21.9251 30.8187C22.6114 30.0964 22.9979 29.1405 23.0067 28.1442C23.0083 27.8735 22.9819 27.6033 22.928 27.3379ZM23.99 25.8827C24.3239 26.604 24.4983 27.3887 24.5012 28.1835C24.5012 28.9734 24.323 29.7531 23.9799 30.4645C23.6368 31.176 23.1375 31.8008 22.5194 32.2926C21.9013 32.7843 21.1802 33.1302 20.4098 33.3046C19.6394 33.479 18.8396 33.4773 18.07 33.2997C17.3003 33.1221 16.5807 32.7731 15.9646 32.2788C15.3486 31.7845 14.852 31.1575 14.5118 30.4447C14.1717 29.7318 13.9967 28.9514 14 28.1615C14.0034 27.3716 14.1848 26.5927 14.531 25.8827C14.8849 25.1748 19.2506 18.0166 19.2506 18.0166L23.99 25.8827Z" fill="white" stroke="white" stroke-width="0.4" stroke-miterlimit="10"/>
</svg>
