<svg width="76" height="76" viewBox="0 0 76 76" fill="none" xmlns="http://www.w3.org/2000/svg">
<circle cx="38" cy="38" r="38" fill="#167667"/>
<path d="M50.243 15.437H27.8261V19.2989H50.243V15.437ZM27.1435 14H51.6261V20.664H26.4609V14H27.1435Z" fill="white"/>
<path d="M50.243 15.437H27.8261V19.2989H50.243V15.437ZM27.1435 14H51.6261V20.664H26.4609V14H27.1435Z" fill="white" stroke="white" stroke-width="0.4" stroke-miterlimit="10"/>
<path d="M47.1186 20.664H31.1322V23.3224C31.1296 23.7074 31.2045 24.0891 31.3523 24.4446C31.5002 24.8001 31.7179 25.1224 31.9927 25.3921C32.2675 25.6619 32.5937 25.8736 32.9519 26.0149C33.3101 26.1561 33.693 26.2239 34.078 26.2143H42.2867C42.921 26.2143 43.5491 26.0889 44.1348 25.8454C44.7205 25.6019 45.2522 25.245 45.6996 24.7953C46.6012 23.8874 47.1107 22.662 47.1186 21.3825V20.664ZM30.5214 19.2988H48.4837V21.3645C48.485 23.0049 47.8396 24.5796 46.6875 25.7473C46.1116 26.321 45.4278 26.7751 44.6756 27.0834C43.9234 27.3917 43.1176 27.5481 42.3047 27.5435H34.078C32.9568 27.5435 31.8813 27.0994 31.0868 26.3083C30.2923 25.5172 29.8436 24.4435 29.8389 23.3224V19.2988H30.5214Z" fill="white"/>
<path d="M47.1186 20.664H31.1322V23.3224C31.1296 23.7074 31.2045 24.0891 31.3523 24.4446C31.5002 24.8001 31.7179 25.1224 31.9927 25.3921C32.2675 25.6619 32.5937 25.8736 32.9519 26.0149C33.3101 26.1561 33.693 26.2239 34.078 26.2143H42.2867C42.921 26.2143 43.5491 26.0889 44.1348 25.8454C44.7205 25.6019 45.2522 25.245 45.6996 24.7953C46.6012 23.8874 47.1107 22.662 47.1186 21.3825V20.664ZM30.5214 19.2988H48.4837V21.3645C48.485 23.0049 47.8396 24.5796 46.6875 25.7473C46.1116 26.321 45.4278 26.7751 44.6756 27.0834C43.9234 27.3917 43.1176 27.5481 42.3047 27.5435H34.078C32.9568 27.5435 31.8813 27.0994 31.0868 26.3083C30.2923 25.5172 29.8436 24.4435 29.8389 23.3224V19.2988H30.5214Z" fill="white" stroke="white" stroke-width="0.4" stroke-miterlimit="10"/>
<path d="M41.1366 34.0635C40.9314 33.8582 40.6878 33.6954 40.4196 33.5843C40.1515 33.4732 39.8641 33.416 39.5738 33.416C39.2836 33.416 38.9962 33.4732 38.7281 33.5843C38.4599 33.6954 38.2163 33.8582 38.0111 34.0635C37.8059 34.2688 37.6431 34.5124 37.5321 34.7805C37.421 35.0486 37.3638 35.336 37.3638 35.6263C37.3638 35.9165 37.421 36.2039 37.5321 36.472C37.6431 36.7401 37.8059 36.9838 38.0111 37.189C38.2163 37.3942 38.46 37.557 38.7281 37.668C38.9962 37.7791 39.2836 37.8363 39.5738 37.8363C39.8641 37.8363 40.1515 37.7791 40.4196 37.668C40.6877 37.557 40.9313 37.3942 41.1366 37.189C41.3419 36.9838 41.5047 36.7402 41.6158 36.472C41.7269 36.2039 41.7841 35.9165 41.7841 35.6263C41.7841 35.336 41.7269 35.0486 41.6158 34.7805C41.5047 34.5123 41.3419 34.2687 41.1366 34.0635ZM39.5738 32.0518C40.4055 32.0524 41.2111 32.3416 41.8534 32.87C42.4956 33.3983 42.9346 34.1332 43.0955 34.9491C43.2565 35.765 43.1293 36.6115 42.7358 37.3441C42.3423 38.0768 41.7067 38.6502 40.9376 38.9666C40.1685 39.2829 39.3134 39.3227 38.5183 39.079C37.7232 38.8353 37.0372 38.3233 36.5774 37.6303C36.1177 36.9373 35.9126 36.1062 35.9971 35.2789C36.0817 34.4516 36.4507 33.6792 37.0412 33.0936C37.7147 32.4255 38.6252 32.051 39.5738 32.0518Z" fill="white"/>
<path d="M41.1366 34.0635C40.9314 33.8582 40.6878 33.6954 40.4196 33.5843C40.1515 33.4732 39.8641 33.416 39.5738 33.416C39.2836 33.416 38.9962 33.4732 38.7281 33.5843C38.4599 33.6954 38.2163 33.8582 38.0111 34.0635C37.8059 34.2688 37.6431 34.5124 37.5321 34.7805C37.421 35.0486 37.3638 35.336 37.3638 35.6263C37.3638 35.9165 37.421 36.2039 37.5321 36.472C37.6431 36.7401 37.8059 36.9838 38.0111 37.189C38.2163 37.3942 38.46 37.557 38.7281 37.668C38.9962 37.7791 39.2836 37.8363 39.5738 37.8363C39.8641 37.8363 40.1515 37.7791 40.4196 37.668C40.6877 37.557 40.9313 37.3942 41.1366 37.189C41.3419 36.9838 41.5047 36.7402 41.6158 36.472C41.7269 36.2039 41.7841 35.9165 41.7841 35.6263C41.7841 35.336 41.7269 35.0486 41.6158 34.7805C41.5047 34.5123 41.3419 34.2687 41.1366 34.0635ZM39.5738 32.0518C40.4055 32.0524 41.2111 32.3416 41.8534 32.87C42.4956 33.3983 42.9346 34.1332 43.0955 34.9491C43.2565 35.765 43.1293 36.6115 42.7358 37.3441C42.3423 38.0768 41.7067 38.6502 40.9376 38.9666C40.1685 39.2829 39.3134 39.3227 38.5183 39.079C37.7232 38.8353 37.0372 38.3233 36.5774 37.6303C36.1177 36.9373 35.9126 36.1062 35.9971 35.2789C36.0817 34.4516 36.4507 33.6792 37.0412 33.0936C37.7147 32.4255 38.6252 32.051 39.5738 32.0518Z" fill="white" stroke="white" stroke-width="0.4" stroke-miterlimit="10"/>
<path d="M40.1122 39.9194L36.3941 38.644L29.2091 40.3145L25.5089 44.9847C25.4713 45.2125 25.4928 45.4461 25.5715 45.6631C25.6501 45.8801 25.7832 46.0733 25.958 46.2241C26.425 46.7271 27.1075 46.3139 27.3411 46.2241L30.4665 42.3084L34.059 41.3384L34.6158 42.1287L32.604 48.3437L31.6161 55.6184L26.5866 59.8934C26.4704 60.0805 26.4213 60.3016 26.4474 60.5204C26.4735 60.7391 26.5733 60.9424 26.7303 61.0969C26.9073 61.2885 27.1442 61.4142 27.4021 61.4533C27.6599 61.4925 27.9235 61.4428 28.1494 61.3125L33.538 56.4447L34.7236 50.4453H35.6756L40.1122 55.4208L42.627 61.043C42.8131 61.2479 43.0557 61.3931 43.3242 61.4602C43.5928 61.5273 43.8752 61.5134 44.1358 61.4202C44.3285 61.324 44.482 61.1642 44.5704 60.9678C44.6588 60.7714 44.6766 60.5505 44.6208 60.3425L41.9085 54.2533L37.7592 49.7986L39.3039 44.6973H40.2919L41.9085 47.7689L48.0156 48.9544C48.2618 48.9232 48.4922 48.8168 48.6755 48.6495C48.8588 48.4823 48.9859 48.2626 49.0395 48.0204C49.0847 47.8042 49.047 47.5789 48.9339 47.3893C48.8208 47.1996 48.6405 47.0594 48.4288 46.9965L43.3634 45.9727L40.1122 39.9194ZM36.6455 37.2969L41.0642 38.7877L44.2975 44.6973L48.8419 45.6134C49.3821 45.7723 49.846 46.1225 50.1468 46.5985C50.4477 47.0746 50.5648 47.6438 50.4765 48.2C50.3742 48.7526 50.091 49.2554 49.6715 49.6294C49.252 50.0034 48.72 50.2272 48.1593 50.2656H48.0695L41.1002 48.9364L40.0943 47.1402L39.3758 49.5112L43.1479 53.5527C44.0819 55.6903 45.0519 57.8457 46.0218 59.9832C46.1845 60.5018 46.152 61.062 45.9303 61.5583C45.7086 62.0546 45.3132 62.4527 44.8184 62.6776C44.2789 62.8902 43.6876 62.9337 43.1229 62.8021C42.5582 62.6706 42.0469 62.3703 41.657 61.9411V61.8513L39.1243 56.2112L35.7474 52.6187L34.7236 57.1452L28.9577 62.4081C28.452 62.7149 27.8559 62.8378 27.2701 62.756C26.6843 62.6742 26.1447 62.3927 25.7424 61.9591C25.3847 61.5448 25.1878 61.0156 25.1878 60.4682C25.1878 59.9208 25.3847 59.3917 25.7424 58.9774L30.3408 54.9538L31.2748 48.0563L32.9273 43.0268L31.2928 43.4579L28.329 47.1582C27.8822 47.5659 27.2992 47.7919 26.6944 47.7919C26.0896 47.7919 25.5066 47.5659 25.0598 47.1582C24.6923 46.8308 24.4296 46.4021 24.305 45.9259C24.1804 45.4497 24.1993 44.9473 24.3593 44.4818V44.3561L28.5086 39.0931L36.4659 37.2969H36.6455Z" fill="white"/>
<path d="M40.1122 39.9194L36.3941 38.644L29.2091 40.3145L25.5089 44.9847C25.4713 45.2125 25.4928 45.4461 25.5715 45.6631C25.6501 45.8801 25.7832 46.0733 25.958 46.2241C26.425 46.7271 27.1075 46.3139 27.3411 46.2241L30.4665 42.3084L34.059 41.3384L34.6158 42.1287L32.604 48.3437L31.6161 55.6184L26.5866 59.8934C26.4704 60.0805 26.4213 60.3016 26.4474 60.5204C26.4735 60.7391 26.5733 60.9424 26.7303 61.0969C26.9073 61.2885 27.1442 61.4142 27.4021 61.4533C27.6599 61.4925 27.9235 61.4428 28.1494 61.3125L33.538 56.4447L34.7236 50.4453H35.6756L40.1122 55.4208L42.627 61.043C42.8131 61.2479 43.0557 61.3931 43.3242 61.4602C43.5928 61.5273 43.8752 61.5134 44.1358 61.4202C44.3285 61.324 44.482 61.1642 44.5704 60.9678C44.6588 60.7714 44.6766 60.5505 44.6208 60.3425L41.9085 54.2533L37.7592 49.7986L39.3039 44.6973H40.2919L41.9085 47.7689L48.0156 48.9544C48.2618 48.9232 48.4922 48.8168 48.6755 48.6495C48.8588 48.4823 48.9859 48.2626 49.0395 48.0204C49.0847 47.8042 49.047 47.5789 48.9339 47.3893C48.8208 47.1996 48.6405 47.0594 48.4288 46.9965L43.3634 45.9727L40.1122 39.9194ZM36.6455 37.2969L41.0642 38.7877L44.2975 44.6973L48.8419 45.6134C49.3821 45.7723 49.846 46.1225 50.1468 46.5985C50.4477 47.0746 50.5648 47.6438 50.4765 48.2C50.3742 48.7526 50.091 49.2554 49.6715 49.6294C49.252 50.0034 48.72 50.2272 48.1593 50.2656H48.0695L41.1002 48.9364L40.0943 47.1402L39.3758 49.5112L43.1479 53.5527C44.0819 55.6903 45.0519 57.8457 46.0218 59.9832C46.1845 60.5018 46.152 61.062 45.9303 61.5583C45.7086 62.0546 45.3132 62.4527 44.8184 62.6776C44.2789 62.8902 43.6876 62.9337 43.1229 62.8021C42.5582 62.6706 42.0469 62.3703 41.657 61.9411V61.8513L39.1243 56.2112L35.7474 52.6187L34.7236 57.1452L28.9577 62.4081C28.452 62.7149 27.8559 62.8378 27.2701 62.756C26.6843 62.6742 26.1447 62.3927 25.7424 61.9591C25.3847 61.5448 25.1878 61.0156 25.1878 60.4682C25.1878 59.9208 25.3847 59.3917 25.7424 58.9774L30.3408 54.9538L31.2748 48.0563L32.9273 43.0268L31.2928 43.4579L28.329 47.1582C27.8822 47.5659 27.2992 47.7919 26.6944 47.7919C26.0896 47.7919 25.5066 47.5659 25.0598 47.1582C24.6923 46.8308 24.4296 46.4021 24.305 45.9259C24.1804 45.4497 24.1993 44.9473 24.3593 44.4818V44.3561L28.5086 39.0931L36.4659 37.2969H36.6455Z" fill="white" stroke="white" stroke-width="0.4" stroke-miterlimit="10"/>
<path d="M50.1709 42.6329C50.607 42.6303 51.0392 42.7155 51.4417 42.8834C51.8442 43.0513 52.2089 43.2985 52.5139 43.6102C52.8189 43.9219 53.0581 44.2918 53.2172 44.6979C53.3763 45.104 53.4521 45.5379 53.44 45.9739V46.4049L52.0749 46.2253V45.9739C52.0846 45.7178 52.0425 45.4625 51.9511 45.2231C51.8598 44.9838 51.7211 44.7653 51.5433 44.5808C51.3655 44.3963 51.1523 44.2496 50.9165 44.1495C50.6807 44.0493 50.4271 43.9978 50.1709 43.998V42.6329Z" fill="white"/>
<path d="M50.1709 42.6329C50.607 42.6303 51.0392 42.7155 51.4417 42.8834C51.8442 43.0513 52.2089 43.2985 52.5139 43.6102C52.8189 43.9219 53.0581 44.2918 53.2172 44.6979C53.3763 45.104 53.4521 45.5379 53.44 45.9739V46.4049L52.0749 46.2253V45.9739C52.0846 45.7178 52.0425 45.4625 51.9511 45.2231C51.8598 44.9838 51.7211 44.7653 51.5433 44.5808C51.3655 44.3963 51.1523 44.2496 50.9165 44.1495C50.6807 44.0493 50.4271 43.9978 50.1709 43.998V42.6329Z" fill="white" stroke="white" stroke-width="0.4" stroke-miterlimit="10"/>
<path d="M50.6377 39.541C52.2672 39.5414 53.8302 40.1872 54.9846 41.3372C55.5594 41.9086 56.0144 42.589 56.3228 43.3385C56.6312 44.0881 56.787 44.8916 56.7808 45.7021C56.7975 45.9772 56.7975 46.2532 56.7808 46.5283L55.4336 46.3308C55.4336 46.1332 55.4336 45.9176 55.4336 45.7021C55.4336 44.4285 54.9289 43.2067 54.03 42.3045C53.1311 41.4022 51.9113 40.8929 50.6377 40.8882V39.541Z" fill="white"/>
<path d="M50.6377 39.541C52.2672 39.5414 53.8302 40.1872 54.9846 41.3372C55.5594 41.9086 56.0144 42.589 56.3228 43.3385C56.6312 44.0881 56.787 44.8916 56.7808 45.7021C56.7975 45.9772 56.7975 46.2532 56.7808 46.5283L55.4336 46.3308C55.4336 46.1332 55.4336 45.9176 55.4336 45.7021C55.4336 44.4285 54.9289 43.2067 54.03 42.3045C53.1311 41.4022 51.9113 40.8929 50.6377 40.8882V39.541Z" fill="white" stroke="white" stroke-width="0.4" stroke-miterlimit="10"/>
<path d="M25.5461 56.9661C25.2964 56.9573 25.0477 57.0007 24.8157 57.0935C24.5837 57.1862 24.3737 57.3264 24.1989 57.505C23.8452 57.8646 23.6455 58.3478 23.6421 58.8521V59.1216L22.2949 59.3012V59.0857V58.8521C22.2939 58.425 22.3775 58.0019 22.5409 57.6073C22.7043 57.2127 22.9443 56.8543 23.2469 56.553C23.8604 55.9356 24.6937 55.5868 25.5641 55.583L25.5461 56.9661Z" fill="white"/>
<path d="M25.5461 56.9661C25.2964 56.9573 25.0477 57.0007 24.8157 57.0935C24.5837 57.1862 24.3737 57.3264 24.1989 57.505C23.8452 57.8646 23.6455 58.3478 23.6421 58.8521V59.1216L22.2949 59.3012V59.0857V58.8521C22.2939 58.425 22.3775 58.0019 22.5409 57.6073C22.7043 57.2127 22.9443 56.8543 23.2469 56.553C23.8604 55.9356 24.6937 55.5868 25.5641 55.583L25.5461 56.9661Z" fill="white" stroke="white" stroke-width="0.4" stroke-miterlimit="10"/>
<path d="M25.0958 53.8769C23.8316 53.8957 22.6256 54.4112 21.7383 55.312C20.851 56.2127 20.3537 57.4264 20.3538 58.6907C20.3538 58.9243 20.3538 59.0859 20.3538 59.3194L19.0066 59.4991C18.9978 59.3675 18.9978 59.2355 19.0066 59.1039C18.9984 58.9663 18.9984 58.8283 19.0066 58.6907C19.0114 57.0534 19.6639 55.4845 20.8217 54.3267C21.9794 53.169 23.5483 52.5165 25.1857 52.5117L25.0958 53.8769Z" fill="white"/>
<path d="M25.0958 53.8769C23.8316 53.8957 22.6256 54.4112 21.7383 55.312C20.851 56.2127 20.3537 57.4264 20.3538 58.6907C20.3538 58.9243 20.3538 59.0859 20.3538 59.3194L19.0066 59.4991C18.9978 59.3675 18.9978 59.2355 19.0066 59.1039C18.9984 58.9663 18.9984 58.8283 19.0066 58.6907C19.0114 57.0534 19.6639 55.4845 20.8217 54.3267C21.9794 53.169 23.5483 52.5165 25.1857 52.5117L25.0958 53.8769Z" fill="white" stroke="white" stroke-width="0.4" stroke-miterlimit="10"/>
<path fill-rule="evenodd" clip-rule="evenodd" d="M39.16 22.4953C39.4077 22.4953 39.6453 22.5937 39.8205 22.7689C39.9956 22.944 40.094 23.1816 40.094 23.4293C40.0964 23.5535 40.074 23.6769 40.0282 23.7923C39.9823 23.9077 39.9139 24.0128 39.8269 24.1014C39.7399 24.1901 39.6362 24.2605 39.5216 24.3086C39.4071 24.3566 39.2842 24.3814 39.16 24.3813C38.9075 24.3813 38.6654 24.281 38.4868 24.1025C38.3083 23.924 38.208 23.6818 38.208 23.4293C38.208 23.3051 38.2327 23.1822 38.2808 23.0677C38.3288 22.9532 38.3993 22.8494 38.4879 22.7624C38.5765 22.6755 38.6816 22.607 38.797 22.5612C38.9125 22.5153 39.0358 22.4929 39.16 22.4953Z" fill="white"/>
<path d="M39.16 22.4953C39.4077 22.4953 39.6453 22.5937 39.8205 22.7689C39.9956 22.944 40.094 23.1816 40.094 23.4293C40.0964 23.5535 40.074 23.6769 40.0282 23.7923C39.9823 23.9077 39.9139 24.0128 39.8269 24.1014C39.7399 24.1901 39.6362 24.2605 39.5216 24.3086C39.4071 24.3566 39.2842 24.3814 39.16 24.3813C38.9075 24.3813 38.6654 24.281 38.4868 24.1025C38.3083 23.924 38.208 23.6818 38.208 23.4293C38.208 23.3051 38.2327 23.1822 38.2808 23.0677C38.3288 22.9532 38.3993 22.8494 38.4879 22.7624C38.5765 22.6755 38.6816 22.607 38.797 22.5612C38.9125 22.5153 39.0358 22.4929 39.16 22.4953Z" fill="white" stroke="white" stroke-width="0.4" stroke-miterlimit="10"/>
</svg>
