<svg width="76" height="76" viewBox="0 0 76 76" fill="none" xmlns="http://www.w3.org/2000/svg">
<circle cx="38" cy="38" r="38" fill="#167667"/>
<path fill-rule="evenodd" clip-rule="evenodd" d="M42.1011 51.526C42.0397 51.254 41.9445 50.9907 41.8176 50.7424L38.3166 44.8239C37.0328 46.9579 34.9822 50.2756 34.8321 50.7091C34.7155 50.9732 34.6207 51.2464 34.5487 51.526C34.4806 51.8156 34.447 52.1122 34.4487 52.4096C34.4436 53.1846 34.6705 53.9434 35.1001 54.5884C35.5297 55.2334 36.1425 55.7352 36.8595 56.0292C37.5766 56.3232 38.3652 56.396 39.124 56.2382C39.8828 56.0804 40.577 55.6993 41.1174 55.1438C41.4774 54.7853 41.7629 54.3592 41.9574 53.89C42.152 53.4207 42.2518 52.9176 42.2511 52.4096C42.2364 52.1102 42.186 51.8135 42.1011 51.526ZM42.9513 50.1422C43.2872 50.8512 43.4636 51.6251 43.4681 52.4096C43.3933 53.7231 42.8189 54.9581 41.8625 55.8615C40.9062 56.7649 39.6405 57.2683 38.3249 57.2683C37.0093 57.2683 35.7436 56.7649 34.7873 55.8615C33.8309 54.9581 33.2565 53.7231 33.1816 52.4096C33.1842 51.6303 33.3608 50.8613 33.6985 50.1589C34.0486 49.442 38.3166 42.3398 38.3166 42.3398L42.9513 50.1422Z" fill="white"/>
<path d="M42.1011 51.526C42.0397 51.254 41.9445 50.9907 41.8176 50.7424L38.3166 44.8239C37.0328 46.9579 34.9822 50.2756 34.8321 50.7091C34.7155 50.9732 34.6207 51.2464 34.5487 51.526C34.4806 51.8156 34.447 52.1122 34.4487 52.4096C34.4436 53.1846 34.6705 53.9434 35.1001 54.5884C35.5297 55.2334 36.1425 55.7352 36.8595 56.0292C37.5766 56.3232 38.3652 56.396 39.124 56.2382C39.8828 56.0804 40.577 55.6993 41.1174 55.1438C41.4774 54.7853 41.7629 54.3592 41.9574 53.89C42.152 53.4207 42.2518 52.9176 42.2511 52.4096C42.2364 52.1102 42.186 51.8135 42.1011 51.526ZM42.9513 50.1422C43.2872 50.8512 43.4636 51.6251 43.4681 52.4096C43.3933 53.7231 42.8189 54.9581 41.8625 55.8615C40.9062 56.7649 39.6405 57.2683 38.3249 57.2683C37.0093 57.2683 35.7436 56.7649 34.7873 55.8615C33.8309 54.9581 33.2565 53.7231 33.1816 52.4096C33.1842 51.6303 33.3608 50.8613 33.6985 50.1589C34.0486 49.442 38.3166 42.3398 38.3166 42.3398L42.9513 50.1422Z" fill="white" stroke="white" stroke-width="0.4" stroke-miterlimit="10"/>
<path d="M49.5048 26.9858H26.9145V31.0204H49.5048V26.9858ZM26.281 25.7188H50.7719V32.2874H25.6475V25.7188H26.281Z" fill="white"/>
<path d="M49.5048 26.9858H26.9145V31.0204H49.5048V26.9858ZM26.281 25.7188H50.7719V32.2874H25.6475V25.7188H26.281Z" fill="white" stroke="white" stroke-width="0.4" stroke-miterlimit="10"/>
<path d="M46.3523 32.2866H30.2973V35.0041C30.2929 35.3878 30.3647 35.7686 30.5085 36.1245C30.6523 36.4803 30.8653 36.804 31.1351 37.0769C31.4049 37.3498 31.7262 37.5665 32.0803 37.7144C32.4345 37.8622 32.8145 37.9384 33.1982 37.9383H41.5341C42.8312 37.9383 44.0754 37.4242 44.9941 36.5086C45.9129 35.593 46.4312 34.3506 46.4356 33.0535L46.3523 32.2866ZM29.6805 31.0195H47.6193V33.0535C47.6106 34.6868 46.9579 36.2507 45.8029 37.4057C44.648 38.5606 43.0841 39.2133 41.4508 39.2221H33.1982C32.0882 39.2089 31.0282 38.7587 30.248 37.9691C29.4677 37.1795 29.0302 36.1142 29.0303 35.0041V31.0195H29.6805Z" fill="white"/>
<path d="M46.3523 32.2866H30.2973V35.0041C30.2929 35.3878 30.3647 35.7686 30.5085 36.1245C30.6523 36.4803 30.8653 36.804 31.1351 37.0769C31.4049 37.3498 31.7262 37.5665 32.0803 37.7144C32.4345 37.8622 32.8145 37.9384 33.1982 37.9383H41.5341C42.8312 37.9383 44.0754 37.4242 44.9941 36.5086C45.9129 35.593 46.4312 34.3506 46.4356 33.0535L46.3523 32.2866ZM29.6805 31.0195H47.6193V33.0535C47.6106 34.6868 46.9579 36.2507 45.8029 37.4057C44.648 38.5606 43.0841 39.2133 41.4508 39.2221H33.1982C32.0882 39.2089 31.0282 38.7587 30.248 37.9691C29.4677 37.1795 29.0302 36.1142 29.0303 35.0041V31.0195H29.6805Z" fill="white" stroke="white" stroke-width="0.4" stroke-miterlimit="10"/>
<path fill-rule="evenodd" clip-rule="evenodd" d="M38.3174 34.172C38.506 34.1687 38.6914 34.2216 38.8498 34.324C39.0083 34.4264 39.1327 34.5736 39.2072 34.747C39.2817 34.9203 39.3029 35.1119 39.2681 35.2973C39.2333 35.4827 39.1442 35.6536 39.012 35.7882C38.8797 35.9227 38.7105 36.0149 38.5257 36.0529C38.3409 36.091 38.149 36.0732 37.9744 36.0018C37.7998 35.9303 37.6503 35.8086 37.5452 35.652C37.44 35.4953 37.3838 35.311 37.3838 35.1223C37.3838 34.8731 37.4816 34.6339 37.6562 34.4562C37.8308 34.2784 38.0683 34.1764 38.3174 34.172Z" fill="white"/>
<path d="M38.3174 34.172C38.506 34.1687 38.6914 34.2216 38.8498 34.324C39.0083 34.4264 39.1327 34.5736 39.2072 34.747C39.2817 34.9203 39.3029 35.1119 39.2681 35.2973C39.2333 35.4827 39.1442 35.6536 39.012 35.7882C38.8797 35.9227 38.7105 36.0149 38.5257 36.0529C38.3409 36.091 38.149 36.0732 37.9744 36.0018C37.7998 35.9303 37.6503 35.8086 37.5452 35.652C37.44 35.4953 37.3838 35.311 37.3838 35.1223C37.3838 34.8731 37.4816 34.6339 37.6562 34.4562C37.8308 34.2784 38.0683 34.1764 38.3174 34.172Z" fill="white" stroke="white" stroke-width="0.4" stroke-miterlimit="10"/>
<path d="M54.5721 25.751C55.059 26.1425 55.4521 26.6381 55.7224 27.2014C55.9954 27.7625 56.1379 28.378 56.1392 29.002C56.1326 29.6558 55.9788 30.2997 55.6891 30.8859C55.3863 31.4616 54.9592 31.9628 54.4387 32.353L53.6885 31.336C54.0514 31.0609 54.3477 30.7076 54.5554 30.3024C54.7474 29.9046 54.8471 29.4687 54.8471 29.027C54.8471 28.5853 54.7474 28.1494 54.5554 27.7516C54.3677 27.3573 54.0943 27.0098 53.7552 26.7346L54.5721 25.751Z" fill="white"/>
<path d="M56.8411 23.2676C57.6832 23.9578 58.3657 24.8224 58.8417 25.8017C59.3138 26.7909 59.5587 27.8732 59.5586 28.9693C59.5686 30.1276 59.2999 31.2712 58.775 32.3037C58.2366 33.31 57.4718 34.1775 56.541 34.8378L55.8574 33.8708C56.6081 33.3128 57.2188 32.588 57.6413 31.7535C58.0731 30.913 58.2961 29.9809 58.2915 29.036C58.2946 28.1309 58.0953 27.2366 57.708 26.4185C57.3182 25.606 56.748 24.8932 56.0408 24.3346L56.8411 23.2676Z" fill="white"/>
<path d="M56.8411 23.2676C57.6832 23.9578 58.3657 24.8224 58.8417 25.8017C59.3138 26.7909 59.5587 27.8732 59.5586 28.9693C59.5686 30.1276 59.2999 31.2712 58.775 32.3037C58.2366 33.31 57.4718 34.1775 56.541 34.8378L55.8574 33.8708C56.6081 33.3128 57.2188 32.588 57.6413 31.7535C58.0731 30.913 58.2961 29.9809 58.2915 29.036C58.2946 28.1309 58.0953 27.2366 57.708 26.4185C57.3182 25.606 56.748 24.8932 56.0408 24.3346L56.8411 23.2676Z" fill="white" stroke="white" stroke-width="0.4" stroke-miterlimit="10"/>
<path d="M59.0915 21C60.2758 21.9557 61.2326 23.163 61.8923 24.5344C62.9094 26.668 63.1529 29.0888 62.5811 31.3822C62.0093 33.6755 60.6577 35.6987 58.758 37.105L58.0078 36.088C59.1013 35.2763 59.9944 34.2249 60.6187 33.0145C61.2429 31.8042 61.5817 30.4669 61.6091 29.1053C61.6364 27.7437 61.3516 26.394 60.7765 25.1595C60.2014 23.925 59.3512 22.8386 58.2912 21.9836L59.0915 21Z" fill="white"/>
<path d="M59.0915 21C60.2758 21.9557 61.2326 23.163 61.8923 24.5344C62.9094 26.668 63.1529 29.0888 62.5811 31.3822C62.0093 33.6755 60.6577 35.6987 58.758 37.105L58.0078 36.088C59.1013 35.2763 59.9944 34.2249 60.6187 33.0145C61.2429 31.8042 61.5817 30.4669 61.6091 29.1053C61.6364 27.7437 61.3516 26.394 60.7765 25.1595C60.2014 23.925 59.3512 22.8386 58.2912 21.9836L59.0915 21Z" fill="white" stroke="white" stroke-width="0.4" stroke-miterlimit="10"/>
<path d="M22.6287 26.7346C22.2942 27.0142 22.0216 27.3606 21.8285 27.7516C21.6317 28.1479 21.5293 28.5845 21.5293 29.027C21.5293 29.4695 21.6317 29.906 21.8285 30.3024C22.0363 30.7076 22.3326 31.0609 22.6954 31.336L21.9452 32.353C21.4203 31.9675 20.9923 31.4652 20.6948 30.8859C20.41 30.3136 20.2617 29.683 20.2617 29.0437C20.2617 28.4044 20.41 27.7738 20.6948 27.2014C20.9652 26.6381 21.3582 26.1425 21.8452 25.751L22.6287 26.7346Z" fill="white"/>
<path d="M22.6287 26.7346C22.2942 27.0142 22.0216 27.3606 21.8285 27.7516C21.6317 28.1479 21.5293 28.5845 21.5293 29.027C21.5293 29.4695 21.6317 29.906 21.8285 30.3024C22.0363 30.7076 22.3326 31.0609 22.6954 31.336L21.9452 32.353C21.4203 31.9675 20.9923 31.4652 20.6948 30.8859C20.41 30.3136 20.2617 29.683 20.2617 29.0437C20.2617 28.4044 20.41 27.7738 20.6948 27.2014C20.9652 26.6381 21.3582 26.1425 21.8452 25.751L22.6287 26.7346Z" fill="white" stroke="white" stroke-width="0.4" stroke-miterlimit="10"/>
<path d="M20.3782 24.2679C19.671 24.8266 19.1008 25.5393 18.711 26.3519C18.0787 27.6212 17.9176 29.0739 18.2565 30.4509C18.5955 31.828 19.4123 33.04 20.5616 33.8708L19.8614 34.8378C18.9232 34.1441 18.1585 33.2425 17.6273 32.2037C17.1102 31.1683 16.8419 30.0266 16.8438 28.8693C16.8556 27.7913 17.107 26.7293 17.5799 25.7605C18.0528 24.7916 18.7353 23.9401 19.5779 23.2676L20.3782 24.2679Z" fill="white"/>
<path d="M20.3782 24.2679C19.671 24.8266 19.1008 25.5393 18.711 26.3519C18.0787 27.6212 17.9176 29.0739 18.2565 30.4509C18.5955 31.828 19.4123 33.04 20.5616 33.8708L19.8614 34.8378C18.9232 34.1441 18.1585 33.2425 17.6273 32.2037C17.1102 31.1683 16.8419 30.0266 16.8438 28.8693C16.8556 27.7913 17.107 26.7293 17.5799 25.7605C18.0528 24.7916 18.7353 23.9401 19.5779 23.2676L20.3782 24.2679Z" fill="white" stroke="white" stroke-width="0.4" stroke-miterlimit="10"/>
<path d="M18.1948 21.9836C17.134 22.8158 16.2737 23.8755 15.6773 25.0846C15.0745 26.3056 14.761 27.6491 14.761 29.0108C14.761 30.3725 15.0745 31.716 15.6773 32.937C16.3144 34.1771 17.2269 35.2549 18.3448 36.088L17.5946 37.105C16.3392 36.1513 15.3232 34.9183 14.627 33.5039C13.9208 32.1174 13.5443 30.5867 13.527 29.0308C13.5096 27.475 13.8519 25.9362 14.527 24.5344C15.1867 23.163 16.1435 21.9557 17.3278 21L18.1948 21.9836Z" fill="white"/>
<path d="M18.1948 21.9836C17.134 22.8158 16.2737 23.8755 15.6773 25.0846C15.0745 26.3056 14.761 27.6491 14.761 29.0108C14.761 30.3725 15.0745 31.716 15.6773 32.937C16.3144 34.1771 17.2269 35.2549 18.3448 36.088L17.5946 37.105C16.3392 36.1513 15.3232 34.9183 14.627 33.5039C13.9208 32.1174 13.5443 30.5867 13.527 29.0308C13.5096 27.475 13.8519 25.9362 14.527 24.5344C15.1867 23.163 16.1435 21.9557 17.3278 21L18.1948 21.9836Z" fill="white" stroke="white" stroke-width="0.4" stroke-miterlimit="10"/>
</svg>
