<svg width="76" height="76" viewBox="0 0 76 76" fill="none" xmlns="http://www.w3.org/2000/svg">
<circle cx="38" cy="38" r="38" fill="#167667"/>
<path d="M20.406 15.6782V50.1642L42.1857 59.256L42.8865 23.2024L20.406 15.6782ZM49.7283 38.2509V15.4753H23.9284L44.2143 22.2803C43.9684 35.3248 43.7225 48.3754 43.4766 61.4321L18.9307 51.1047V14H51.0561V38.2509H49.7283Z" fill="white"/>
<path d="M20.406 15.6782V50.1642L42.1857 59.256L42.8865 23.2024L20.406 15.6782ZM49.7283 38.2509V15.4753H23.9284L44.2143 22.2803C43.9684 35.3248 43.7225 48.3754 43.4766 61.4321L18.9307 51.1047V14H51.0561V38.2509H49.7283Z" fill="white" stroke="white" stroke-width="0.4" stroke-miterlimit="10"/>
<path d="M38.1096 36.3701H36.708V42.585H38.1096V36.3701Z" fill="white"/>
<path d="M38.1096 36.3701H36.708V42.585H38.1096V36.3701Z" fill="white" stroke="white" stroke-width="0.4" stroke-miterlimit="10"/>
<path d="M47.9021 47.251C48.4848 47.7082 48.9521 48.2956 49.2668 48.9661C49.5897 49.6398 49.7597 50.3766 49.7647 51.1237C49.7561 51.8983 49.5733 52.6609 49.2299 53.3552C48.8792 54.0502 48.367 54.651 47.7361 55.1072L46.9062 53.9822C47.3864 53.6609 47.7844 53.2314 48.0681 52.7282C48.3103 52.228 48.4364 51.6795 48.4369 51.1237C48.4398 50.5894 48.3265 50.0609 48.105 49.5746C47.8666 49.0954 47.5268 48.6738 47.1091 48.339L47.9021 47.251Z" fill="white"/>
<path d="M47.9021 47.251C48.4848 47.7082 48.9521 48.2956 49.2668 48.9661C49.5897 49.6398 49.7597 50.3766 49.7647 51.1237C49.7561 51.8983 49.5733 52.6609 49.2299 53.3552C48.8792 54.0502 48.367 54.651 47.7361 55.1072L46.9062 53.9822C47.3864 53.6609 47.7844 53.2314 48.0681 52.7282C48.3103 52.228 48.4364 51.6795 48.4369 51.1237C48.4398 50.5894 48.3265 50.0609 48.105 49.5746C47.8666 49.0954 47.5268 48.6738 47.1091 48.339L47.9021 47.251Z" fill="white" stroke="white" stroke-width="0.4" stroke-miterlimit="10"/>
<path d="M50.6328 44.2637C51.6495 45.0784 52.469 46.1123 53.0302 47.2881C53.5944 48.4689 53.8904 49.76 53.8969 51.0687C53.8934 52.4364 53.5696 53.7843 52.9516 55.0044C52.3335 56.2245 51.4383 57.283 50.3377 58.095L49.5078 56.97C50.4521 56.2926 51.223 55.4016 51.7577 54.3697C52.281 53.3482 52.5529 52.2165 52.5507 51.0687C52.5467 49.9714 52.298 48.8888 51.8226 47.8998C51.3473 46.9108 50.6573 46.0403 49.8029 45.3517L50.6328 44.2637Z" fill="white"/>
<path d="M50.6328 44.2637C51.6495 45.0784 52.469 46.1123 53.0302 47.2881C53.5944 48.4689 53.8904 49.76 53.8969 51.0687C53.8934 52.4364 53.5696 53.7843 52.9516 55.0044C52.3335 56.2245 51.4383 57.283 50.3377 58.095L49.5078 56.97C50.4521 56.2926 51.223 55.4016 51.7577 54.3697C52.281 53.3482 52.5529 52.2165 52.5507 51.0687C52.5467 49.9714 52.298 48.8888 51.8226 47.8998C51.3473 46.9108 50.6573 46.0403 49.8029 45.3517L50.6328 44.2637Z" fill="white" stroke="white" stroke-width="0.4" stroke-miterlimit="10"/>
<path d="M53.343 41.5146C54.8002 42.6839 55.9691 44.1725 56.7595 45.8654C57.5499 47.5583 57.9405 49.4102 57.9013 51.2781C57.8621 53.146 57.3941 54.9798 56.5333 56.6381C55.6726 58.2963 54.4423 59.7345 52.9373 60.8416L52.1074 59.7351C53.4659 58.7342 54.5706 57.4286 55.3329 55.9233C56.0952 54.418 56.4937 52.7548 56.4966 51.0675C56.513 49.4399 56.1533 47.8305 55.4454 46.3648C54.7394 44.9317 53.7256 43.6722 52.4763 42.6765L53.343 41.5146Z" fill="white"/>
<path d="M53.343 41.5146C54.8002 42.6839 55.9691 44.1725 56.7595 45.8654C57.5499 47.5583 57.9405 49.4102 57.9013 51.2781C57.8621 53.146 57.3941 54.9798 56.5333 56.6381C55.6726 58.2963 54.4423 59.7345 52.9373 60.8416L52.1074 59.7351C53.4659 58.7342 54.5706 57.4286 55.3329 55.9233C56.0952 54.418 56.4937 52.7548 56.4966 51.0675C56.513 49.4399 56.1533 47.8305 55.4454 46.3648C54.7394 44.9317 53.7256 43.6722 52.4763 42.6765L53.343 41.5146Z" fill="white" stroke="white" stroke-width="0.4" stroke-miterlimit="10"/>
</svg>
