<svg width="76" height="76" viewBox="0 0 76 76" fill="none" xmlns="http://www.w3.org/2000/svg">
<circle cx="38" cy="38" r="38" fill="#167667"/>
<path d="M30.25 23.9117C30.25 23.0423 30.5953 22.2086 31.2101 21.5939C31.8248 20.9791 32.6585 20.6338 33.5279 20.6338C34.3972 20.6338 35.231 20.9791 35.8457 21.5939C36.4604 22.2086 36.8058 23.0423 36.8058 23.9117H35.437C35.4435 23.66 35.3972 23.4098 35.301 23.1771C35.2048 22.9444 35.061 22.7345 34.8787 22.5609C34.7013 22.3834 34.4908 22.2425 34.259 22.1464C34.0272 22.0504 33.7788 22.0009 33.5279 22.0009C33.277 22.0009 33.0285 22.0504 32.7968 22.1464C32.565 22.2425 32.3544 22.3834 32.1771 22.5609C31.9948 22.7345 31.8509 22.9444 31.7548 23.1771C31.6586 23.4098 31.6123 23.66 31.6188 23.9117H30.25Z" fill="white"/>
<path d="M30.25 23.9117C30.25 23.0423 30.5953 22.2086 31.2101 21.5939C31.8248 20.9791 32.6585 20.6338 33.5279 20.6338C34.3972 20.6338 35.231 20.9791 35.8457 21.5939C36.4604 22.2086 36.8058 23.0423 36.8058 23.9117H35.437C35.4435 23.66 35.3972 23.4098 35.301 23.1771C35.2048 22.9444 35.061 22.7345 34.8787 22.5609C34.7013 22.3834 34.4908 22.2425 34.259 22.1464C34.0272 22.0504 33.7788 22.0009 33.5279 22.0009C33.277 22.0009 33.0285 22.0504 32.7968 22.1464C32.565 22.2425 32.3544 22.3834 32.1771 22.5609C31.9948 22.7345 31.8509 22.9444 31.7548 23.1771C31.6586 23.4098 31.6123 23.66 31.6188 23.9117H30.25Z" fill="white" stroke="white" stroke-width="0.4" stroke-miterlimit="10"/>
<path d="M35.4727 32.5192C35.4712 32.0882 35.5548 31.6611 35.7186 31.2625C35.8824 30.8638 36.1232 30.5013 36.4272 30.1958C37.0417 29.5833 37.8739 29.2393 38.7415 29.2393C39.6092 29.2393 40.4414 29.5833 41.0559 30.1958C41.3599 30.5013 41.6007 30.8638 41.7645 31.2625C41.9283 31.6611 42.0119 32.0882 42.0104 32.5192H40.6416C40.6416 32.267 40.5917 32.0172 40.4946 31.7844C40.3975 31.5516 40.2553 31.3404 40.0761 31.1628C39.8969 30.9853 39.6843 30.8451 39.4506 30.7502C39.2169 30.6553 38.9668 30.6077 38.7145 30.6101C38.4659 30.6061 38.2191 30.6536 37.9897 30.7497C37.7603 30.8458 37.5533 30.9884 37.3818 31.1684C37.0255 31.5279 36.825 32.0131 36.8234 32.5192H35.4727Z" fill="white"/>
<path d="M35.4727 32.5192C35.4712 32.0882 35.5548 31.6611 35.7186 31.2625C35.8824 30.8638 36.1232 30.5013 36.4272 30.1958C37.0417 29.5833 37.8739 29.2393 38.7415 29.2393C39.6092 29.2393 40.4414 29.5833 41.0559 30.1958C41.3599 30.5013 41.6007 30.8638 41.7645 31.2625C41.9283 31.6611 42.0119 32.0882 42.0104 32.5192H40.6416C40.6416 32.267 40.5917 32.0172 40.4946 31.7844C40.3975 31.5516 40.2553 31.3404 40.0761 31.1628C39.8969 30.9853 39.6843 30.8451 39.4506 30.7502C39.2169 30.6553 38.9668 30.6077 38.7145 30.6101C38.4659 30.6061 38.2191 30.6536 37.9897 30.7497C37.7603 30.8458 37.5533 30.9884 37.3818 31.1684C37.0255 31.5279 36.825 32.0131 36.8234 32.5192H35.4727Z" fill="white" stroke="white" stroke-width="0.4" stroke-miterlimit="10"/>
<path d="M40.6426 34.9342C40.6402 34.5031 40.7234 34.0757 40.8873 33.677C41.0512 33.2782 41.2925 32.9159 41.5974 32.611C41.9022 32.3062 42.2645 32.0648 42.6633 31.9009C43.0621 31.7371 43.4894 31.6539 43.9205 31.6563C44.3488 31.6552 44.773 31.7391 45.1687 31.9029C45.5644 32.0667 45.9237 32.3074 46.2258 32.6108C46.8448 33.226 47.1946 34.0615 47.1984 34.9342H45.8116C45.8181 34.6825 45.7718 34.4323 45.6756 34.1996C45.5795 33.9669 45.4356 33.757 45.2533 33.5834C45.0817 33.4034 44.8747 33.2608 44.6453 33.1647C44.416 33.0686 44.1692 33.0211 43.9205 33.0251C43.6698 33.0251 43.4216 33.0745 43.1899 33.1704C42.9583 33.2663 42.7478 33.407 42.5706 33.5842C42.3933 33.7615 42.2527 33.972 42.1567 34.2036C42.0608 34.4352 42.0114 34.6835 42.0114 34.9342H40.6426Z" fill="white"/>
<path d="M40.6426 34.9342C40.6402 34.5031 40.7234 34.0757 40.8873 33.677C41.0512 33.2782 41.2925 32.9159 41.5974 32.611C41.9022 32.3062 42.2645 32.0648 42.6633 31.9009C43.0621 31.7371 43.4894 31.6539 43.9205 31.6563C44.3488 31.6552 44.773 31.7391 45.1687 31.9029C45.5644 32.0667 45.9237 32.3074 46.2258 32.6108C46.8448 33.226 47.1946 34.0615 47.1984 34.9342H45.8116C45.8181 34.6825 45.7718 34.4323 45.6756 34.1996C45.5795 33.9669 45.4356 33.757 45.2533 33.5834C45.0817 33.4034 44.8747 33.2608 44.6453 33.1647C44.416 33.0686 44.1692 33.0211 43.9205 33.0251C43.6698 33.0251 43.4216 33.0745 43.1899 33.1704C42.9583 33.2663 42.7478 33.407 42.5706 33.5842C42.3933 33.7615 42.2527 33.972 42.1567 34.2036C42.0608 34.4352 42.0114 34.6835 42.0114 34.9342H40.6426Z" fill="white" stroke="white" stroke-width="0.4" stroke-miterlimit="10"/>
<path d="M45.8115 37.22C45.8144 36.3506 46.157 35.5169 46.7661 34.8966C47.3836 34.2829 48.2188 33.9385 49.0894 33.9385C49.96 33.9385 50.7952 34.2829 51.4127 34.8966C52.0218 35.5169 52.3644 36.3506 52.3673 37.22H50.9985C50.9985 36.7136 50.7974 36.2281 50.4393 35.87C50.0813 35.512 49.5957 35.3109 49.0894 35.3109C48.5831 35.3109 48.0975 35.512 47.7395 35.87C47.3814 36.2281 47.1803 36.7136 47.1803 37.22H45.8115Z" fill="white"/>
<path d="M45.8115 37.22C45.8144 36.3506 46.157 35.5169 46.7661 34.8966C47.3836 34.2829 48.2188 33.9385 49.0894 33.9385C49.96 33.9385 50.7952 34.2829 51.4127 34.8966C52.0218 35.5169 52.3644 36.3506 52.3673 37.22H50.9985C50.9985 36.7136 50.7974 36.2281 50.4393 35.87C50.0813 35.512 49.5957 35.3109 49.0894 35.3109C48.5831 35.3109 48.0975 35.512 47.7395 35.87C47.3814 36.2281 47.1803 36.7136 47.1803 37.22H45.8115Z" fill="white" stroke="white" stroke-width="0.4" stroke-miterlimit="10"/>
<path d="M23.1897 37.057C23.1332 36.3009 23.3435 35.5489 23.784 34.9318C24.136 34.3978 24.6366 33.9784 25.224 33.7254C25.8114 33.4724 26.46 33.3967 27.0898 33.5078C27.7197 33.6188 28.3033 33.9117 28.7688 34.3503C29.2343 34.789 29.5612 35.3542 29.7094 35.9764L28.3767 36.3366C28.3176 36.0937 28.2086 35.8658 28.0567 35.6674C27.9047 35.469 27.7132 35.3043 27.4942 35.1839C27.2789 35.0574 27.0408 34.9748 26.7935 34.9408C26.5463 34.9068 26.2947 34.9221 26.0533 34.9858C25.6265 35.1061 25.2523 35.3661 24.9907 35.7242C24.7273 36.0821 24.6054 36.5247 24.6485 36.9669L23.1897 37.057Z" fill="white"/>
<path d="M23.1897 37.057C23.1332 36.3009 23.3435 35.5489 23.784 34.9318C24.136 34.3978 24.6366 33.9784 25.224 33.7254C25.8114 33.4724 26.46 33.3967 27.0898 33.5078C27.7197 33.6188 28.3033 33.9117 28.7688 34.3503C29.2343 34.789 29.5612 35.3542 29.7094 35.9764L28.3767 36.3366C28.3176 36.0937 28.2086 35.8658 28.0567 35.6674C27.9047 35.469 27.7132 35.3043 27.4942 35.1839C27.2789 35.0574 27.0408 34.9748 26.7935 34.9408C26.5463 34.9068 26.2947 34.9221 26.0533 34.9858C25.6265 35.1061 25.2523 35.3661 24.9907 35.7242C24.7273 36.0821 24.6054 36.5247 24.6485 36.9669L23.1897 37.057Z" fill="white" stroke="white" stroke-width="0.4" stroke-miterlimit="10"/>
<path d="M27.9085 28.7559C27.3369 28.0917 26.8914 27.3287 26.5937 26.5046C26.2776 25.6887 26.1129 24.8221 26.1074 23.9471C26.1069 21.9779 26.8836 20.088 28.2687 18.6881C29.6605 17.3155 31.5368 16.5459 33.4917 16.5459C35.4465 16.5459 37.3228 17.3155 38.7146 18.6881C40.1063 20.085 40.8896 21.9753 40.8939 23.9471C40.8905 24.6485 40.7874 25.3459 40.5877 26.0183C40.412 26.6879 40.1453 27.3302 39.7953 27.9274L38.7146 27.243C39.0248 26.7647 39.2616 26.2426 39.4171 25.6941C39.5826 25.145 39.6675 24.5747 39.6692 24.0012C39.7141 23.1775 39.5907 22.3533 39.3064 21.579C39.0221 20.8046 38.583 20.0963 38.0158 19.4974C37.4486 18.8984 36.7653 18.4214 36.0076 18.0953C35.2498 17.7693 34.4336 17.6012 33.6087 17.6012C32.7838 17.6012 31.9676 17.7693 31.2099 18.0953C30.4522 18.4214 29.7688 18.8984 29.2017 19.4974C28.6345 20.0963 28.1953 20.8046 27.9111 21.579C27.6268 22.3533 27.5033 23.1775 27.5482 24.0012C27.5552 24.6948 27.6769 25.3825 27.9085 26.0363C28.1619 26.6946 28.5275 27.3039 28.9891 27.8374L27.9085 28.7559Z" fill="white"/>
<path d="M27.9085 28.7559C27.3369 28.0917 26.8914 27.3287 26.5937 26.5046C26.2776 25.6887 26.1129 24.8221 26.1074 23.9471C26.1069 21.9779 26.8836 20.088 28.2687 18.6881C29.6605 17.3155 31.5368 16.5459 33.4917 16.5459C35.4465 16.5459 37.3228 17.3155 38.7146 18.6881C40.1063 20.085 40.8896 21.9753 40.8939 23.9471C40.8905 24.6485 40.7874 25.3459 40.5877 26.0183C40.412 26.6879 40.1453 27.3302 39.7953 27.9274L38.7146 27.243C39.0248 26.7647 39.2616 26.2426 39.4171 25.6941C39.5826 25.145 39.6675 24.5747 39.6692 24.0012C39.7141 23.1775 39.5907 22.3533 39.3064 21.579C39.0221 20.8046 38.583 20.0963 38.0158 19.4974C37.4486 18.8984 36.7653 18.4214 36.0076 18.0953C35.2498 17.7693 34.4336 17.6012 33.6087 17.6012C32.7838 17.6012 31.9676 17.7693 31.2099 18.0953C30.4522 18.4214 29.7688 18.8984 29.2017 19.4974C28.6345 20.0963 28.1953 20.8046 27.9111 21.579C27.6268 22.3533 27.5033 23.1775 27.5482 24.0012C27.5552 24.6948 27.6769 25.3825 27.9085 26.0363C28.1619 26.6946 28.5275 27.3039 28.9891 27.8374L27.9085 28.7559Z" fill="white" stroke="white" stroke-width="0.4" stroke-miterlimit="10"/>
<path d="M28.0892 33.024C26.5104 32.0797 25.2065 30.7385 24.307 29.1338C23.4599 27.7172 22.9534 26.1233 22.8271 24.4775C22.7009 22.8318 22.9585 21.1793 23.5795 19.6501C24.2006 18.1208 25.1683 16.7567 26.4063 15.665C27.6442 14.5734 29.1188 13.7841 30.7137 13.3592C32.3086 12.9344 33.9804 12.8857 35.5974 13.2168C37.2144 13.548 38.7324 14.2501 40.0319 15.2678C41.3313 16.2854 42.3768 17.5909 43.0859 19.0813C43.7951 20.5718 44.1485 22.2065 44.1183 23.8568C44.117 24.8616 43.9777 25.8616 43.7041 26.8285C43.4169 27.7992 42.9988 28.7262 42.4614 29.5841L41.3087 28.8456C41.7739 28.0988 42.1373 27.2932 42.3894 26.4503C42.6273 25.6063 42.7485 24.7337 42.7496 23.8568C42.9133 22.5491 42.7971 21.2215 42.4086 19.9621C42.02 18.7028 41.3681 17.5405 40.496 16.5524C39.6239 15.5642 38.5517 14.7729 37.3504 14.2309C36.149 13.6889 34.8462 13.4085 33.5283 13.4085C32.2104 13.4085 30.9075 13.6889 29.7062 14.2309C28.5049 14.7729 27.4326 15.5642 26.5605 16.5524C25.6884 17.5405 25.0365 18.7028 24.648 19.9621C24.2594 21.2215 24.1432 22.5491 24.307 23.8568C24.3139 25.4692 24.7369 27.0525 25.5352 28.4534C26.3335 29.8544 27.48 31.0255 28.8636 31.8534L28.0892 33.024Z" fill="white"/>
<path d="M28.0892 33.024C26.5104 32.0797 25.2065 30.7385 24.307 29.1338C23.4599 27.7172 22.9534 26.1233 22.8271 24.4775C22.7009 22.8318 22.9585 21.1793 23.5795 19.6501C24.2006 18.1208 25.1683 16.7567 26.4063 15.665C27.6442 14.5734 29.1188 13.7841 30.7137 13.3592C32.3086 12.9344 33.9804 12.8857 35.5974 13.2168C37.2144 13.548 38.7324 14.2501 40.0319 15.2678C41.3313 16.2854 42.3768 17.5909 43.0859 19.0813C43.7951 20.5718 44.1485 22.2065 44.1183 23.8568C44.117 24.8616 43.9777 25.8616 43.7041 26.8285C43.4169 27.7992 42.9988 28.7262 42.4614 29.5841L41.3087 28.8456C41.7739 28.0988 42.1373 27.2932 42.3894 26.4503C42.6273 25.6063 42.7485 24.7337 42.7496 23.8568C42.9133 22.5491 42.7971 21.2215 42.4086 19.9621C42.02 18.7028 41.3681 17.5405 40.496 16.5524C39.6239 15.5642 38.5517 14.7729 37.3504 14.2309C36.149 13.6889 34.8462 13.4085 33.5283 13.4085C32.2104 13.4085 30.9075 13.6889 29.7062 14.2309C28.5049 14.7729 27.4326 15.5642 26.5605 16.5524C25.6884 17.5405 25.0365 18.7028 24.648 19.9621C24.2594 21.2215 24.1432 22.5491 24.307 23.8568C24.3139 25.4692 24.7369 27.0525 25.5352 28.4534C26.3335 29.8544 27.48 31.0255 28.8636 31.8534L28.0892 33.024Z" fill="white" stroke="white" stroke-width="0.4" stroke-miterlimit="10"/>
<path d="M27.2246 52.2233C27.7908 54.262 28.8817 56.1166 30.3883 57.6022C31.8949 59.0879 33.7646 60.1525 35.8111 60.6901C37.8575 61.2277 40.0092 61.2194 42.0514 60.666C44.0936 60.1126 45.9551 59.0336 47.4502 57.5364C49.7368 55.2745 51.0323 52.1977 51.0523 48.9814H52.421C52.4247 52.2422 51.2456 55.3936 49.1025 57.8511C46.9593 60.3086 43.9976 61.9054 40.7667 62.3453C37.5358 62.7851 34.2549 62.0383 31.5328 60.2431C28.8107 58.448 26.832 55.7265 25.9639 52.5835L27.2246 52.2233Z" fill="white"/>
<path d="M27.2246 52.2233C27.7908 54.262 28.8817 56.1166 30.3883 57.6022C31.8949 59.0879 33.7646 60.1525 35.8111 60.6901C37.8575 61.2277 40.0092 61.2194 42.0514 60.666C44.0936 60.1126 45.9551 59.0336 47.4502 57.5364C49.7368 55.2745 51.0323 52.1977 51.0523 48.9814H52.421C52.4247 52.2422 51.2456 55.3936 49.1025 57.8511C46.9593 60.3086 43.9976 61.9054 40.7667 62.3453C37.5358 62.7851 34.2549 62.0383 31.5328 60.2431C28.8107 58.448 26.832 55.7265 25.9639 52.5835L27.2246 52.2233Z" fill="white" stroke="white" stroke-width="0.4" stroke-miterlimit="10"/>
<path d="M52.3678 37.2207H50.999V48.9814H52.3678V37.2207Z" fill="white"/>
<path d="M52.3678 37.2207H50.999V48.9814H52.3678V37.2207Z" fill="white" stroke="white" stroke-width="0.4" stroke-miterlimit="10"/>
<path d="M47.1803 34.9326H45.8115V42.551H47.1803V34.9326Z" fill="white"/>
<path d="M47.1803 34.9326H45.8115V42.551H47.1803V34.9326Z" fill="white" stroke="white" stroke-width="0.4" stroke-miterlimit="10"/>
<path d="M42.0114 32.5205H40.6426V40.0488H42.0114V32.5205Z" fill="white"/>
<path d="M42.0114 32.5205H40.6426V40.0488H42.0114V32.5205Z" fill="white" stroke="white" stroke-width="0.4" stroke-miterlimit="10"/>
<path d="M36.8053 23.9092H35.4365V40.0825H36.8053V23.9092Z" fill="white"/>
<path d="M36.8053 23.9092H35.4365V40.0825H36.8053V23.9092Z" fill="white" stroke="white" stroke-width="0.4" stroke-miterlimit="10"/>
<path d="M31.637 23.9092V46.5842H30.1242L28.2871 36.2823L29.6199 36.0301L30.2502 39.5421V23.9092H31.637Z" fill="white"/>
<path d="M31.637 23.9092V46.5842H30.1242L28.2871 36.2823L29.6199 36.0301L30.2502 39.5421V23.9092H31.637Z" fill="white" stroke="white" stroke-width="0.4" stroke-miterlimit="10"/>
<path d="M24.5437 36.8904L23.1953 37.126L25.8858 52.5257L27.2341 52.2901L24.5437 36.8904Z" fill="white"/>
<path d="M24.5437 36.8904L23.1953 37.126L25.8858 52.5257L27.2341 52.2901L24.5437 36.8904Z" fill="white" stroke="white" stroke-width="0.4" stroke-miterlimit="10"/>
</svg>
