<svg width="76" height="76" viewBox="0 0 76 76" fill="none" xmlns="http://www.w3.org/2000/svg">
<circle cx="38" cy="38" r="38" fill="#167667"/>
<path d="M39.2172 35.3314C38.8899 35.0107 38.4496 34.8318 37.9914 34.8334C37.5393 34.8334 37.1057 35.013 36.786 35.3327C36.4663 35.6524 36.2868 36.0859 36.2868 36.538C36.2842 36.7635 36.3264 36.9872 36.411 37.1963C36.4955 37.4053 36.6207 37.5955 36.7792 37.7558C36.9377 37.9161 37.1265 38.0434 37.3346 38.1303C37.5427 38.2171 37.7659 38.2618 37.9914 38.2618C38.2185 38.2644 38.4438 38.2216 38.6541 38.1358C38.8644 38.0501 39.0554 37.9232 39.216 37.7627C39.3766 37.6021 39.5035 37.411 39.5892 37.2007C39.6749 36.9904 39.7177 36.7651 39.7152 36.538C39.7138 36.0861 39.5349 35.6528 39.2172 35.3314ZM37.9914 33.4161C38.8313 33.4161 39.6371 33.7484 40.2328 34.3405C40.8285 34.9326 41.1658 35.7364 41.1708 36.5763C41.1717 37.2047 40.9864 37.8192 40.6383 38.3423C40.2902 38.8655 39.7949 39.2737 39.215 39.5155C38.635 39.7573 37.9964 39.8219 37.3798 39.701C36.7632 39.5802 36.1962 39.2793 35.7505 38.8364C35.1592 38.233 34.829 37.4212 34.8311 36.5763C34.8286 36.1606 34.9086 35.7485 35.0665 35.364C35.2244 34.9794 35.4571 34.63 35.7511 34.336C36.045 34.0421 36.3944 33.8094 36.779 33.6515C37.1636 33.4935 37.5757 33.4135 37.9914 33.4161Z" fill="white"/>
<path d="M39.2172 35.3314C38.8899 35.0107 38.4496 34.8318 37.9914 34.8334C37.5393 34.8334 37.1057 35.013 36.786 35.3327C36.4663 35.6524 36.2868 36.0859 36.2868 36.538C36.2842 36.7635 36.3264 36.9872 36.411 37.1963C36.4955 37.4053 36.6207 37.5955 36.7792 37.7558C36.9377 37.9161 37.1265 38.0434 37.3346 38.1303C37.5427 38.2171 37.7659 38.2618 37.9914 38.2618C38.2185 38.2644 38.4438 38.2216 38.6541 38.1358C38.8644 38.0501 39.0554 37.9232 39.216 37.7627C39.3766 37.6021 39.5035 37.411 39.5892 37.2007C39.6749 36.9904 39.7177 36.7651 39.7152 36.538C39.7138 36.0861 39.5349 35.6528 39.2172 35.3314ZM37.9914 33.4161C38.8313 33.4161 39.6371 33.7484 40.2328 34.3405C40.8285 34.9326 41.1658 35.7364 41.1708 36.5763C41.1717 37.2047 40.9864 37.8192 40.6383 38.3423C40.2902 38.8655 39.7949 39.2737 39.215 39.5155C38.635 39.7573 37.9964 39.8219 37.3798 39.701C36.7632 39.5802 36.1962 39.2793 35.7505 38.8364C35.1592 38.233 34.829 37.4212 34.8311 36.5763C34.8286 36.1606 34.9086 35.7485 35.0665 35.364C35.2244 34.9794 35.4571 34.63 35.7511 34.336C36.045 34.0421 36.3944 33.8094 36.779 33.6515C37.1636 33.4935 37.5757 33.4135 37.9914 33.4161Z" fill="white" stroke="white" stroke-width="0.4" stroke-miterlimit="10"/>
<path d="M53.5827 20.9475C51.0155 18.3936 47.8587 16.5115 44.3914 15.4675C40.9241 14.4234 37.253 14.2495 33.7025 14.9611C30.152 15.6728 26.8315 17.2481 24.0344 19.5478C21.2373 21.8476 19.0497 24.8009 17.6651 28.1468C16.2805 31.4928 15.7414 35.1282 16.0954 38.732C16.4495 42.3358 17.6858 45.7968 19.6951 48.8093C21.7045 51.8218 24.425 54.2929 27.6161 56.0043C30.8073 57.7157 34.3709 58.6147 37.992 58.6217C39.727 58.6307 41.4568 58.4313 43.1442 58.028C44.5907 57.6865 45.9968 57.1922 47.3388 56.5532C47.1606 56.1434 47.0133 55.7209 46.8982 55.2891C46.7317 54.593 46.6544 53.8786 46.6684 53.1631C46.6809 51.0039 47.5487 48.9377 49.0817 47.4171C50.6039 45.8841 52.6674 45.0105 54.8276 44.9847C55.5195 44.9851 56.2084 45.0753 56.877 45.2528C57.29 45.3522 57.6937 45.4867 58.0837 45.655C58.6652 44.3545 59.1205 43.0012 59.4436 41.6137C59.8456 39.9512 60.0577 38.2485 60.0756 36.5381C60.0764 33.6394 59.5031 30.7693 58.3887 28.0933C57.2742 25.4174 55.6408 22.9887 53.5827 20.9475ZM37.992 13.0372C41.0798 13.0347 44.1378 13.6407 46.9913 14.8206C49.8448 16.0005 52.4378 17.7312 54.6221 19.9137C56.8064 22.0962 58.5391 24.6878 59.7214 27.5403C60.9036 30.3928 61.5121 33.4503 61.5121 36.5381C61.5135 38.3244 61.3078 40.1047 60.8992 41.8436C60.4962 43.5841 59.8987 45.2738 59.118 46.8808L58.7732 47.5512L58.1603 47.1298C57.6581 46.8747 57.132 46.6694 56.5897 46.5169C56.0379 46.384 55.4718 46.3196 54.9043 46.3254C54.0132 46.3229 53.1303 46.4965 52.3066 46.8364C51.4828 47.1762 50.7344 47.6755 50.1043 48.3056C49.4742 48.9358 48.9748 49.6842 48.635 50.508C48.2952 51.3317 48.1215 52.2145 48.124 53.1056C48.1213 53.688 48.1987 54.268 48.3539 54.8294C48.4907 55.3948 48.7101 55.9369 49.0051 56.4383L49.369 57.0895L48.6986 57.4342C45.3964 59.1237 41.7396 60.0034 38.0303 60.0008C34.834 60.186 31.6335 59.7167 28.6249 58.6216C25.6163 57.5266 22.863 55.8288 20.5336 53.6322C18.2042 51.4357 16.3477 48.7867 15.078 45.8476C13.8083 42.9084 13.152 39.741 13.1494 36.5393C13.1468 33.3376 13.7979 30.1691 15.0628 27.2278C16.3277 24.2866 18.1798 21.6346 20.5057 19.4343C22.8315 17.234 25.5821 15.5317 28.5889 14.4317C31.5957 13.3317 34.7954 12.8572 37.992 13.0372Z" fill="white"/>
<path d="M53.5827 20.9475C51.0155 18.3936 47.8587 16.5115 44.3914 15.4675C40.9241 14.4234 37.253 14.2495 33.7025 14.9611C30.152 15.6728 26.8315 17.2481 24.0344 19.5478C21.2373 21.8476 19.0497 24.8009 17.6651 28.1468C16.2805 31.4928 15.7414 35.1282 16.0954 38.732C16.4495 42.3358 17.6858 45.7968 19.6951 48.8093C21.7045 51.8218 24.425 54.2929 27.6161 56.0043C30.8073 57.7157 34.3709 58.6147 37.992 58.6217C39.727 58.6307 41.4568 58.4313 43.1442 58.028C44.5907 57.6865 45.9968 57.1922 47.3388 56.5532C47.1606 56.1434 47.0133 55.7209 46.8982 55.2891C46.7317 54.593 46.6544 53.8786 46.6684 53.1631C46.6809 51.0039 47.5487 48.9377 49.0817 47.4171C50.6039 45.8841 52.6674 45.0105 54.8276 44.9847C55.5195 44.9851 56.2084 45.0753 56.877 45.2528C57.29 45.3522 57.6937 45.4867 58.0837 45.655C58.6652 44.3545 59.1205 43.0012 59.4436 41.6137C59.8456 39.9512 60.0577 38.2485 60.0756 36.5381C60.0764 33.6394 59.5031 30.7693 58.3887 28.0933C57.2742 25.4174 55.6408 22.9887 53.5827 20.9475ZM37.992 13.0372C41.0798 13.0347 44.1378 13.6407 46.9913 14.8206C49.8448 16.0005 52.4378 17.7312 54.6221 19.9137C56.8064 22.0962 58.5391 24.6878 59.7214 27.5403C60.9036 30.3928 61.5121 33.4503 61.5121 36.5381C61.5135 38.3244 61.3078 40.1047 60.8992 41.8436C60.4962 43.5841 59.8987 45.2738 59.118 46.8808L58.7732 47.5512L58.1603 47.1298C57.6581 46.8747 57.132 46.6694 56.5897 46.5169C56.0379 46.384 55.4718 46.3196 54.9043 46.3254C54.0132 46.3229 53.1303 46.4965 52.3066 46.8364C51.4828 47.1762 50.7344 47.6755 50.1043 48.3056C49.4742 48.9358 48.9748 49.6842 48.635 50.508C48.2952 51.3317 48.1215 52.2145 48.124 53.1056C48.1213 53.688 48.1987 54.268 48.3539 54.8294C48.4907 55.3948 48.7101 55.9369 49.0051 56.4383L49.369 57.0895L48.6986 57.4342C45.3964 59.1237 41.7396 60.0034 38.0303 60.0008C34.834 60.186 31.6335 59.7167 28.6249 58.6216C25.6163 57.5266 22.863 55.8288 20.5336 53.6322C18.2042 51.4357 16.3477 48.7867 15.078 45.8476C13.8083 42.9084 13.152 39.741 13.1494 36.5393C13.1468 33.3376 13.7979 30.1691 15.0628 27.2278C16.3277 24.2866 18.1798 21.6346 20.5057 19.4343C22.8315 17.234 25.5821 15.5317 28.5889 14.4317C31.5957 13.3317 34.7954 12.8572 37.992 13.0372Z" fill="white" stroke="white" stroke-width="0.4" stroke-miterlimit="10"/>
<path d="M27.1328 28.7046C28.2701 27.1296 29.7361 25.8205 31.4294 24.8681C33.1226 23.9156 35.0026 23.3425 36.9392 23.1885L37.0541 24.6441C35.3281 24.7806 33.6526 25.2917 32.1442 26.1418C30.6359 26.992 29.3309 28.1606 28.3203 29.5665L27.1328 28.7046Z" fill="white"/>
<path d="M27.1328 28.7046C28.2701 27.1296 29.7361 25.8205 31.4294 24.8681C33.1226 23.9156 35.0026 23.3425 36.9392 23.1885L37.0541 24.6441C35.3281 24.7806 33.6526 25.2917 32.1442 26.1418C30.6359 26.992 29.3309 28.1606 28.3203 29.5665L27.1328 28.7046Z" fill="white" stroke="white" stroke-width="0.4" stroke-miterlimit="10"/>
<path d="M39.3513 23.2275C41.2835 23.4274 43.1493 24.0448 44.8193 25.0369C46.4894 26.029 47.9239 27.3722 49.0237 28.9735L47.8362 29.7971C46.8269 28.3662 45.5202 27.1705 44.0055 26.292C42.5139 25.4222 40.8568 24.8741 39.1406 24.6832L39.3513 23.2275Z" fill="white"/>
<path d="M39.3513 23.2275C41.2835 23.4274 43.1493 24.0448 44.8193 25.0369C46.4894 26.029 47.9239 27.3722 49.0237 28.9735L47.8362 29.7971C46.8269 28.3662 45.5202 27.1705 44.0055 26.292C42.5139 25.4222 40.8568 24.8741 39.1406 24.6832L39.3513 23.2275Z" fill="white" stroke="white" stroke-width="0.4" stroke-miterlimit="10"/>
<path d="M50.2119 31.0605C51.0136 32.8279 51.4126 34.7512 51.3802 36.6916C51.3638 38.6331 50.926 40.5478 50.097 42.3035L48.7754 41.6714C49.5245 40.1113 49.923 38.4061 49.9428 36.6756C49.9627 34.9451 49.6034 33.2312 48.8903 31.6543L50.2119 31.0605Z" fill="white"/>
<path d="M50.2119 31.0605C51.0136 32.8279 51.4126 34.7512 51.3802 36.6916C51.3638 38.6331 50.926 40.5478 50.097 42.3035L48.7754 41.6714C49.5245 40.1113 49.923 38.4061 49.9428 36.6756C49.9627 34.9451 49.6034 33.2312 48.8903 31.6543L50.2119 31.0605Z" fill="white" stroke="white" stroke-width="0.4" stroke-miterlimit="10"/>
<path d="M48.8525 44.372C47.7177 45.9583 46.2471 47.275 44.5456 48.2284C42.844 49.1818 40.9533 49.7485 39.0078 49.8881V48.4517C40.7315 48.3029 42.4033 47.787 43.911 46.9386C45.4217 46.0957 46.7292 44.932 47.7417 43.5293L48.8525 44.372Z" fill="white"/>
<path d="M48.8525 44.372C47.7177 45.9583 46.2471 47.275 44.5456 48.2284C42.844 49.1818 40.9533 49.7485 39.0078 49.8881V48.4517C40.7315 48.3029 42.4033 47.787 43.911 46.9386C45.4217 46.0957 46.7292 44.932 47.7417 43.5293L48.8525 44.372Z" fill="white" stroke="white" stroke-width="0.4" stroke-miterlimit="10"/>
<path d="M36.6515 49.8693C34.7154 49.6791 32.8451 49.0644 31.1737 48.0689C29.5165 47.101 28.081 45.796 26.96 44.2383L28.1666 43.2998C29.1758 44.7307 30.4826 45.9263 31.9972 46.8048C33.4851 47.6798 35.1447 48.2221 36.8621 48.3945L36.6515 49.8693Z" fill="white"/>
<path d="M36.6515 49.8693C34.7154 49.6791 32.8451 49.0644 31.1737 48.0689C29.5165 47.101 28.081 45.796 26.96 44.2383L28.1666 43.2998C29.1758 44.7307 30.4826 45.9263 31.9972 46.8048C33.4851 47.6798 35.1447 48.2221 36.8621 48.3945L36.6515 49.8693Z" fill="white" stroke="white" stroke-width="0.4" stroke-miterlimit="10"/>
<path d="M25.772 42.0349C24.979 40.2629 24.5803 38.3399 24.6035 36.3987C24.6266 34.4575 25.0711 32.5446 25.906 30.792L27.2276 31.4049C26.4868 32.9606 26.0928 34.6587 26.073 36.3817C26.0531 38.1046 26.4079 39.8113 27.1127 41.3837L25.772 42.0349Z" fill="white"/>
<path d="M25.772 42.0349C24.979 40.2629 24.5803 38.3399 24.6035 36.3987C24.6266 34.4575 25.0711 32.5446 25.906 30.792L27.2276 31.4049C26.4868 32.9606 26.0928 34.6587 26.073 36.3817C26.0531 38.1046 26.4079 39.8113 27.1127 41.3837L25.772 42.0349Z" fill="white" stroke="white" stroke-width="0.4" stroke-miterlimit="10"/>
<path d="M29.7363 30.5813C30.6026 29.3835 31.7205 28.3899 33.0115 27.67C34.291 26.9379 35.7172 26.4996 37.1869 26.3867L37.3018 27.8424C36.0427 27.9412 34.8204 28.3138 33.7202 28.9341C32.6112 29.5569 31.6506 30.413 30.9047 31.4432L29.7363 30.5813Z" fill="white"/>
<path d="M29.7363 30.5813C30.6026 29.3835 31.7205 28.3899 33.0115 27.67C34.291 26.9379 35.7172 26.4996 37.1869 26.3867L37.3018 27.8424C36.0427 27.9412 34.8204 28.3138 33.7202 28.9341C32.6112 29.5569 31.6506 30.413 30.9047 31.4432L29.7363 30.5813Z" fill="white" stroke="white" stroke-width="0.4" stroke-miterlimit="10"/>
<path d="M39.0081 26.4053C40.4779 26.5547 41.8968 27.0254 43.1643 27.7843C44.4455 28.529 45.5446 29.5497 46.3821 30.7722L45.1754 31.5958C44.461 30.5514 43.5267 29.6759 42.4382 29.0307C41.3497 28.3856 40.1332 27.9863 38.874 27.8609L39.0081 26.4053Z" fill="white"/>
<path d="M39.0081 26.4053C40.4779 26.5547 41.8968 27.0254 43.1643 27.7843C44.4455 28.529 45.5446 29.5497 46.3821 30.7722L45.1754 31.5958C44.461 30.5514 43.5267 29.6759 42.4382 29.0307C41.3497 28.3856 40.1332 27.9863 38.874 27.8609L39.0081 26.4053Z" fill="white" stroke="white" stroke-width="0.4" stroke-miterlimit="10"/>
<path d="M47.3011 32.3633C47.9041 33.712 48.2048 35.1764 48.1822 36.6536C48.1659 38.1308 47.8328 39.5873 47.2054 40.9247L45.8838 40.2927C46.4353 39.1586 46.7233 37.9146 46.7265 36.6536C46.75 35.3797 46.4883 34.1167 45.9604 32.957L47.3011 32.3633Z" fill="white"/>
<path d="M47.3011 32.3633C47.9041 33.712 48.2048 35.1764 48.1822 36.6536C48.1659 38.1308 47.8328 39.5873 47.2054 40.9247L45.8838 40.2927C46.4353 39.1586 46.7233 37.9146 46.7265 36.6536C46.75 35.3797 46.4883 34.1167 45.9604 32.957L47.3011 32.3633Z" fill="white" stroke="white" stroke-width="0.4" stroke-miterlimit="10"/>
<path d="M46.2663 42.5145C45.3958 43.7094 44.278 44.7026 42.9889 45.4265C41.6999 46.1503 40.2699 46.5878 38.7966 46.709L38.6816 45.2151C39.9463 45.1189 41.1745 44.7467 42.2798 44.1245C43.3851 43.5024 44.3405 42.6455 45.0788 41.6143L46.2663 42.5145Z" fill="white"/>
<path d="M46.2663 42.5145C45.3958 43.7094 44.278 44.7026 42.9889 45.4265C41.6999 46.1503 40.2699 46.5878 38.7966 46.709L38.6816 45.2151C39.9463 45.1189 41.1745 44.7467 42.2798 44.1245C43.3851 43.5024 44.3405 42.6455 45.0788 41.6143L46.2663 42.5145Z" fill="white" stroke="white" stroke-width="0.4" stroke-miterlimit="10"/>
<path d="M36.9785 46.6905C35.5066 46.5393 34.0851 46.0706 32.812 45.3166C31.5389 44.5627 30.4446 43.5415 29.6045 42.3236L30.8111 41.5C31.5278 42.5435 32.4622 43.4191 33.55 44.0665C34.6367 44.6956 35.8443 45.0873 37.0934 45.2157L36.9785 46.6905Z" fill="white"/>
<path d="M36.9785 46.6905C35.5066 46.5393 34.0851 46.0706 32.812 45.3166C31.5389 44.5627 30.4446 43.5415 29.6045 42.3236L30.8111 41.5C31.5278 42.5435 32.4622 43.4191 33.55 44.0665C34.6367 44.6956 35.8443 45.0873 37.0934 45.2157L36.9785 46.6905Z" fill="white" stroke="white" stroke-width="0.4" stroke-miterlimit="10"/>
<path d="M28.7021 40.7142C28.1021 39.3705 27.7952 37.9145 27.8019 36.443C27.8155 34.9634 28.1556 33.505 28.7978 32.1719L30.1194 32.7848C29.5729 33.9282 29.2789 35.1759 29.2575 36.443C29.2526 37.709 29.5136 38.9618 30.0236 40.1204L28.7021 40.7142Z" fill="white"/>
<path d="M28.7021 40.7142C28.1021 39.3705 27.7952 37.9145 27.8019 36.443C27.8155 34.9634 28.1556 33.505 28.7978 32.1719L30.1194 32.7848C29.5729 33.9282 29.2789 35.1759 29.2575 36.443C29.2526 37.709 29.5136 38.9618 30.0236 40.1204L28.7021 40.7142Z" fill="white" stroke="white" stroke-width="0.4" stroke-miterlimit="10"/>
<path d="M39.6579 29.8916C40.2446 30.0465 40.8105 30.2716 41.3433 30.562C41.8623 30.8698 42.3443 31.2361 42.7798 31.6537L41.7647 32.688C41.4194 32.3589 41.0332 32.0756 40.6155 31.8452C40.2027 31.6047 39.7577 31.4241 39.2939 31.3089L39.6579 29.8916Z" fill="white"/>
<path d="M39.6579 29.8916C40.2446 30.0465 40.8105 30.2716 41.3433 30.562C41.8623 30.8698 42.3443 31.2361 42.7798 31.6537L41.7647 32.688C41.4194 32.3589 41.0332 32.0756 40.6155 31.8452C40.2027 31.6047 39.7577 31.4241 39.2939 31.3089L39.6579 29.8916Z" fill="white" stroke="white" stroke-width="0.4" stroke-miterlimit="10"/>
<path d="M44.5417 34.6807C44.7071 35.2605 44.7973 35.8591 44.8099 36.4619C44.8101 37.0694 44.7329 37.6744 44.58 38.2623L43.1819 37.8984C43.2969 37.4347 43.3548 36.9588 43.3542 36.4811C43.3498 36.0074 43.2789 35.5368 43.1436 35.0829L44.5417 34.6807Z" fill="white"/>
<path d="M44.5417 34.6807C44.7071 35.2605 44.7973 35.8591 44.8099 36.4619C44.8101 37.0694 44.7329 37.6744 44.58 38.2623L43.1819 37.8984C43.2969 37.4347 43.3548 36.9588 43.3542 36.4811C43.3498 36.0074 43.2789 35.5368 43.1436 35.0829L44.5417 34.6807Z" fill="white" stroke="white" stroke-width="0.4" stroke-miterlimit="10"/>
<path d="M42.8384 41.3833C42.419 41.8167 41.9421 42.1905 41.4211 42.4942C40.9001 42.8045 40.3396 43.0428 39.7548 43.2028L39.3525 41.8047C39.8117 41.6676 40.2548 41.4813 40.6741 41.2492C41.081 41.0049 41.4544 40.7087 41.785 40.3682L42.8384 41.3833Z" fill="white"/>
<path d="M42.8384 41.3833C42.419 41.8167 41.9421 42.1905 41.4211 42.4942C40.9001 42.8045 40.3396 43.0428 39.7548 43.2028L39.3525 41.8047C39.8117 41.6676 40.2548 41.4813 40.6741 41.2492C41.081 41.0049 41.4544 40.7087 41.785 40.3682L42.8384 41.3833Z" fill="white" stroke="white" stroke-width="0.4" stroke-miterlimit="10"/>
<path d="M36.3454 43.146C35.7559 42.9995 35.189 42.774 34.6599 42.4756C34.1429 42.1821 33.6718 41.8143 33.2617 41.3839L34.2768 40.3496C34.6136 40.6858 34.9936 40.9756 35.4069 41.2115C35.8236 41.4395 36.2677 41.6133 36.7284 41.7286L36.3454 43.146Z" fill="white"/>
<path d="M36.3454 43.146C35.7559 42.9995 35.189 42.774 34.6599 42.4756C34.1429 42.1821 33.6718 41.8143 33.2617 41.3839L34.2768 40.3496C34.6136 40.6858 34.9936 40.9756 35.4069 41.2115C35.8236 41.4395 36.2677 41.6133 36.7284 41.7286L36.3454 43.146Z" fill="white" stroke="white" stroke-width="0.4" stroke-miterlimit="10"/>
<path d="M31.4419 38.4146C31.1352 37.2405 31.1352 36.0072 31.4419 34.833L32.8593 35.1969C32.7442 35.6606 32.6864 36.1365 32.6869 36.6143C32.6913 37.0879 32.7622 37.5585 32.8976 38.0124L31.4419 38.4146Z" fill="white"/>
<path d="M31.4419 38.4146C31.1352 37.2405 31.1352 36.0072 31.4419 34.833L32.8593 35.1969C32.7442 35.6606 32.6864 36.1365 32.6869 36.6143C32.6913 37.0879 32.7622 37.5585 32.8976 38.0124L31.4419 38.4146Z" fill="white" stroke="white" stroke-width="0.4" stroke-miterlimit="10"/>
<path d="M33.1094 31.8069C33.5283 31.3676 34.0051 30.9874 34.5267 30.6768C35.0467 30.3692 35.6077 30.1371 36.193 29.9873L36.5761 31.3855C36.116 31.5025 35.6767 31.6899 35.2737 31.9409C34.8609 32.1851 34.4811 32.4812 34.1436 32.822L33.1094 31.8069Z" fill="white"/>
<path d="M33.1094 31.8069C33.5283 31.3676 34.0051 30.9874 34.5267 30.6768C35.0467 30.3692 35.6077 30.1371 36.193 29.9873L36.5761 31.3855C36.116 31.5025 35.6767 31.6899 35.2737 31.9409C34.8609 32.1851 34.4811 32.4812 34.1436 32.822L33.1094 31.8069Z" fill="white" stroke="white" stroke-width="0.4" stroke-miterlimit="10"/>
<path d="M56.341 35.8484C56.1481 35.6688 55.8958 35.5666 55.6323 35.5611C55.3735 35.5618 55.1255 35.6651 54.9428 35.8484C54.8493 35.9368 54.7755 36.0439 54.726 36.1627C54.6765 36.2815 54.6525 36.4093 54.6555 36.5379C54.6521 36.6695 54.6759 36.8003 54.7253 36.9222C54.7748 37.0441 54.8488 37.1545 54.9428 37.2466C55.1255 37.4299 55.3735 37.5333 55.6323 37.5339C55.8958 37.5284 56.1481 37.4262 56.341 37.2466C56.5238 37.0558 56.6266 36.8022 56.6283 36.5379C56.6276 36.2791 56.5243 36.0311 56.341 35.8484ZM55.6323 34.1055C55.9521 34.1045 56.269 34.1666 56.5648 34.2882C56.8606 34.4098 57.1295 34.5885 57.3561 34.8141C57.6951 35.1569 57.9255 35.592 58.0185 36.065C58.1115 36.538 58.063 37.028 57.879 37.4735C57.695 37.9191 57.3838 38.3006 56.9842 38.5702C56.5846 38.8399 56.1144 38.9857 55.6323 38.9895C55.3125 38.9905 54.9956 38.9285 54.6999 38.8068C54.4041 38.6852 54.1352 38.5065 53.9085 38.2809C53.6786 38.0545 53.496 37.7847 53.3714 37.4871C53.2468 37.1895 53.1826 36.8701 53.1826 36.5475C53.1826 36.2249 53.2468 35.9055 53.3714 35.6079C53.496 35.3103 53.6786 35.0405 53.9085 34.8141C54.1352 34.5885 54.4041 34.4098 54.6999 34.2882C54.9956 34.1666 55.3125 34.1045 55.6323 34.1055Z" fill="white"/>
<path d="M56.341 35.8484C56.1481 35.6688 55.8958 35.5666 55.6323 35.5611C55.3735 35.5618 55.1255 35.6651 54.9428 35.8484C54.8493 35.9368 54.7755 36.0439 54.726 36.1627C54.6765 36.2815 54.6525 36.4093 54.6555 36.5379C54.6521 36.6695 54.6759 36.8003 54.7253 36.9222C54.7748 37.0441 54.8488 37.1545 54.9428 37.2466C55.1255 37.4299 55.3735 37.5333 55.6323 37.5339C55.8958 37.5284 56.1481 37.4262 56.341 37.2466C56.5238 37.0558 56.6266 36.8022 56.6283 36.5379C56.6276 36.2791 56.5243 36.0311 56.341 35.8484ZM55.6323 34.1055C55.9521 34.1045 56.269 34.1666 56.5648 34.2882C56.8606 34.4098 57.1295 34.5885 57.3561 34.8141C57.6951 35.1569 57.9255 35.592 58.0185 36.065C58.1115 36.538 58.063 37.028 57.879 37.4735C57.695 37.9191 57.3838 38.3006 56.9842 38.5702C56.5846 38.8399 56.1144 38.9857 55.6323 38.9895C55.3125 38.9905 54.9956 38.9285 54.6999 38.8068C54.4041 38.6852 54.1352 38.5065 53.9085 38.2809C53.6786 38.0545 53.496 37.7847 53.3714 37.4871C53.2468 37.1895 53.1826 36.8701 53.1826 36.5475C53.1826 36.2249 53.2468 35.9055 53.3714 35.6079C53.496 35.3103 53.6786 35.0405 53.9085 34.8141C54.1352 34.5885 54.4041 34.4098 54.6999 34.2882C54.9956 34.1666 55.3125 34.1045 55.6323 34.1055Z" fill="white" stroke="white" stroke-width="0.4" stroke-miterlimit="10"/>
<path d="M59.674 48.3561C59.0576 47.6744 58.309 47.1252 57.4738 46.7417C56.6385 46.3583 55.7341 46.1486 54.8153 46.1256C53.8965 46.1025 52.9826 46.2664 52.1292 46.6074C51.2757 46.9485 50.5005 47.4594 49.8507 48.1093C49.2008 48.7592 48.6898 49.5344 48.3488 50.3878C48.0078 51.2413 47.8438 52.1552 47.8669 53.0739C47.89 53.9927 48.0996 54.8972 48.4831 55.7324C48.8665 56.5677 49.4158 57.3163 50.0975 57.9327C51.0525 58.844 52.2522 59.4575 53.5501 59.6985C54.8479 59.9394 56.1879 59.7974 57.4064 59.2897C58.6249 58.782 59.6693 57.9306 60.4121 56.8393C61.1548 55.7481 61.5639 54.4642 61.5894 53.1444C61.6024 51.3591 60.9147 49.6399 59.674 48.3561ZM54.8666 44.9085C57.0264 44.9364 59.0892 45.8097 60.6125 47.341C61.7685 48.4949 62.5561 49.9658 62.8758 51.5675C63.1954 53.1692 63.0328 54.8297 62.4084 56.339C61.784 57.8482 60.726 59.1383 59.3681 60.046C58.0103 60.9537 56.4137 61.4382 54.7804 61.4382C53.1471 61.4382 51.5505 60.9537 50.1927 60.046C48.8348 59.1383 47.7768 57.8482 47.1524 56.339C46.528 54.8297 46.3654 53.1692 46.6851 51.5675C47.0047 49.9658 47.7924 48.4949 48.9483 47.341C49.7226 46.5612 50.6451 45.9443 51.6615 45.5265C52.678 45.1087 53.7677 44.8986 54.8666 44.9085Z" fill="white"/>
<path d="M59.674 48.3561C59.0576 47.6744 58.309 47.1252 57.4738 46.7417C56.6385 46.3583 55.7341 46.1486 54.8153 46.1256C53.8965 46.1025 52.9826 46.2664 52.1292 46.6074C51.2757 46.9485 50.5005 47.4594 49.8507 48.1093C49.2008 48.7592 48.6898 49.5344 48.3488 50.3878C48.0078 51.2413 47.8438 52.1552 47.8669 53.0739C47.89 53.9927 48.0996 54.8972 48.4831 55.7324C48.8665 56.5677 49.4158 57.3163 50.0975 57.9327C51.0525 58.844 52.2522 59.4575 53.5501 59.6985C54.8479 59.9394 56.1879 59.7974 57.4064 59.2897C58.6249 58.782 59.6693 57.9306 60.4121 56.8393C61.1548 55.7481 61.5639 54.4642 61.5894 53.1444C61.6024 51.3591 60.9147 49.6399 59.674 48.3561ZM54.8666 44.9085C57.0264 44.9364 59.0892 45.8097 60.6125 47.341C61.7685 48.4949 62.5561 49.9658 62.8758 51.5675C63.1954 53.1692 63.0328 54.8297 62.4084 56.339C61.784 57.8482 60.726 59.1383 59.3681 60.046C58.0103 60.9537 56.4137 61.4382 54.7804 61.4382C53.1471 61.4382 51.5505 60.9537 50.1927 60.046C48.8348 59.1383 47.7768 57.8482 47.1524 56.339C46.528 54.8297 46.3654 53.1692 46.6851 51.5675C47.0047 49.9658 47.7924 48.4949 48.9483 47.341C49.7226 46.5612 50.6451 45.9443 51.6615 45.5265C52.678 45.1087 53.7677 44.8986 54.8666 44.9085Z" fill="white" stroke="white" stroke-width="0.4" stroke-miterlimit="10"/>
<path d="M55.5562 48.4521H54.1006V54.5045H55.5562V48.4521Z" fill="white"/>
<path d="M55.5562 48.4521H54.1006V54.5045H55.5562V48.4521Z" fill="white" stroke="white" stroke-width="0.4" stroke-miterlimit="10"/>
<path d="M55.5562 55.96H54.1006V58.1817H55.5562V55.96Z" fill="white"/>
<path d="M55.5562 55.96H54.1006V58.1817H55.5562V55.96Z" fill="white" stroke="white" stroke-width="0.4" stroke-miterlimit="10"/>
</svg>
