<svg width="32" height="32" viewBox="0 0 32 32" fill="none" xmlns="http://www.w3.org/2000/svg">
<circle cx="16" cy="16" r="16" fill="white"/>
<path d="M18.6673 19.3711L20.0451 17.9928C20.2307 17.8094 20.4654 17.6839 20.7209 17.6315C20.9764 17.5791 21.2416 17.602 21.4844 17.6974L23.1635 18.3681C23.4088 18.4677 23.6191 18.6377 23.768 18.8567C23.9169 19.0758 23.9976 19.3339 24 19.5988V22.6753C23.9986 22.8555 23.9607 23.0335 23.8887 23.1986C23.8167 23.3638 23.712 23.5126 23.581 23.6362C23.45 23.7598 23.2953 23.8556 23.1263 23.9178C22.9573 23.9801 22.7775 24.0074 22.5976 23.9983C10.8314 23.2661 8.45719 13.2979 8.00819 9.48294C7.98735 9.2956 8.00639 9.10596 8.06407 8.92651C8.12175 8.74706 8.21675 8.58186 8.34283 8.44178C8.46891 8.3017 8.62321 8.18992 8.79558 8.11378C8.96794 8.03764 9.15447 7.99887 9.34289 8.00003H12.3137C12.5788 8.00081 12.8376 8.08092 13.0568 8.23005C13.276 8.37918 13.4456 8.59051 13.5438 8.83686L14.2142 10.5167C14.3128 10.7585 14.338 11.0241 14.2865 11.2802C14.2351 11.5362 14.1094 11.7715 13.9252 11.9565L12.5474 13.3348C12.5474 13.3348 13.3408 18.7065 18.6673 19.3711Z" fill="#167667"/>
</svg>
