<svg width="64" height="64" viewBox="0 0 64 64" fill="none" xmlns="http://www.w3.org/2000/svg">
<circle cx="32" cy="32" r="32" fill="#167667" fill-opacity="0.15"/>
<path d="M46.7406 25.2846C46.5676 24.6578 46.2224 24.0847 45.7395 23.6228C45.2566 23.1608 44.653 22.8263 43.989 22.6528C41.5324 22.0064 31.6891 22.0064 31.6891 22.0064C27.5847 21.96 23.4815 22.1657 19.4056 22.622C18.7415 22.8082 18.1388 23.1504 17.6545 23.6163C17.1702 24.0822 16.8203 24.6563 16.6377 25.2846C16.1973 27.6577 15.9836 30.0631 15.9989 32.4719C15.9825 34.8809 16.1963 37.2864 16.6377 39.6594C16.8165 40.2859 17.1657 40.858 17.651 41.3195C18.1363 41.781 18.7409 42.1157 19.4056 42.2911C21.895 42.9375 31.6891 42.9375 31.6891 42.9375C35.7989 42.984 39.9077 42.7783 43.989 42.3219C44.653 42.1484 45.2566 41.8139 45.7395 41.352C46.2224 40.8901 46.5676 40.3169 46.7406 39.6902C47.1922 37.3182 47.4114 34.9124 47.3957 32.5028C47.4296 30.0824 47.2101 27.6647 46.7406 25.2846ZM28.5609 36.9507V27.9933L36.75 32.4719L28.5609 36.9507Z" fill="#167667"/>
</svg>
